<?xml version="1.0" standalone="no"?>
<!DOCTYPE svg PUBLIC "-//W3C//DTD SVG 20010904//EN"
 "http://www.w3.org/TR/2001/REC-SVG-20010904/DTD/svg10.dtd">
<svg version="1.0" xmlns="http://www.w3.org/2000/svg"
 width="300.000000pt" height="300.000000pt" viewBox="0 0 300.000000 300.000000"
 preserveAspectRatio="xMidYMid meet">
<metadata>
Created by potrace 1.10, written by Peter Selinger 2001-2011
</metadata>
<g transform="translate(0.000000,300.000000) scale(0.100000,-0.100000)"
fill="#000000" stroke="none">
<path d="M35 2965 c3 -22 7 -50 8 -62 2 -12 6 -25 9 -29 4 -3 4 -13 1 -21 -4
-9 1 -21 9 -27 10 -7 12 -18 7 -31 -4 -11 -8 -14 -8 -8 -1 7 -9 22 -18 33 -10
11 -18 24 -19 28 0 4 -6 18 -13 32 -24 52 -4 -46 24 -112 15 -36 26 -80 25
-101 -1 -29 2 -37 12 -31 10 6 11 5 1 -8 -7 -8 -10 -18 -7 -21 4 -3 8 -29 9
-58 1 -28 8 -55 15 -59 8 -5 9 -10 2 -14 -6 -3 -13 -2 -17 4 -4 6 -10 8 -14 6
-12 -8 -34 92 -27 122 5 20 4 23 -4 12 -6 -10 -10 -11 -10 -2 0 6 -4 12 -10
12 -6 0 -6 -9 -1 -22 4 -13 6 -29 3 -36 -8 -25 20 -130 41 -152 16 -18 20 -37
21 -96 0 -41 4 -74 9 -74 10 0 4 -23 -8 -32 -6 -5 -5 -8 3 -8 6 0 12 -11 12
-25 0 -14 -4 -25 -10 -25 -5 0 -10 -7 -10 -15 0 -8 4 -15 9 -15 6 0 6 -12 1
-32 -6 -17 -6 -36 -1 -42 9 -11 8 -29 -3 -64 -4 -11 -2 -23 5 -27 8 -6 8 -10
-2 -15 -9 -6 -9 -12 4 -25 20 -20 22 -26 5 -20 -10 4 -13 -11 -12 -58 0 -35 4
-69 8 -76 5 -7 0 -18 -10 -26 -14 -10 -15 -13 -4 -12 8 2 22 6 30 11 12 7 12
6 3 -4 -8 -8 -9 -20 -3 -36 6 -15 6 -24 0 -24 -6 0 -10 9 -10 20 0 14 -5 18
-16 13 -13 -5 -13 -7 -2 -14 7 -5 8 -9 3 -9 -6 0 -11 -9 -12 -20 -2 -29 31
-26 47 4 8 15 11 41 7 65 -3 23 -1 39 3 36 5 -3 8 68 8 157 0 204 2 247 13
254 5 3 9 17 9 32 -1 23 -2 25 -11 9 -5 -9 -8 -21 -5 -26 3 -5 -1 -12 -10 -15
-10 -4 -13 -2 -8 6 4 6 6 55 5 107 -3 114 -5 133 -14 148 -4 6 -3 14 3 18 10
6 7 128 -7 220 -4 28 -8 55 -8 60 0 6 -4 16 -8 23 -5 6 -4 12 0 12 5 0 9 15 9
34 0 30 -2 33 -18 25 -13 -7 -16 -6 -12 5 3 8 14 16 25 19 10 3 19 13 19 22 0
11 -5 15 -14 12 -10 -4 -12 0 -8 16 5 21 4 21 -14 5 -18 -16 -19 -15 -21 25
-2 22 -8 46 -13 51 -8 8 -9 -1 -5 -29z"/>
<path d="M146 2972 c4 -15 12 -30 18 -34 7 -5 7 -8 1 -8 -16 0 -37 -62 -25
-74 14 -14 13 -39 -2 -30 -7 5 -8 3 -3 -6 5 -7 9 -25 11 -39 1 -14 3 -30 3
-36 1 -5 6 -3 11 5 5 8 10 10 10 4 0 -6 -6 -16 -13 -22 -7 -7 -12 -26 -10 -44
2 -18 4 -78 5 -133 1 -65 6 -107 15 -120 18 -27 16 -40 -4 -24 -15 12 -16 12
-9 -6 18 -44 25 -78 19 -88 -3 -6 -2 -7 4 -4 5 4 10 -7 10 -23 0 -17 -4 -30
-9 -30 -5 0 -6 5 -3 10 3 6 1 10 -4 10 -13 0 -14 -10 -1 -30 6 -9 5 -17 -3
-22 -9 -6 -9 -8 1 -8 6 0 12 -6 12 -13 0 -7 9 -23 19 -34 20 -21 20 -21 0 -26
-16 -4 -19 -2 -14 14 4 10 2 19 -3 19 -14 0 -21 -25 -12 -40 5 -8 5 -21 1 -29
-11 -21 -11 -101 0 -101 10 0 12 16 9 74 -2 37 -1 39 17 25 17 -13 17 -13 4 4
-17 21 -9 34 9 12 11 -13 15 -55 19 -173 1 -18 5 -31 10 -28 4 3 6 -6 3 -19
-2 -14 2 -33 9 -42 8 -10 9 -14 2 -10 -6 4 -15 3 -18 -3 -4 -6 -1 -9 7 -8 10
2 14 -21 18 -99 6 -117 16 -145 14 -40 -2 157 -4 178 -14 172 -6 -3 -10 -1
-10 4 0 6 5 11 11 11 7 0 9 10 4 27 -3 15 -8 84 -11 153 -2 69 -7 159 -11 200
-9 103 -7 194 6 218 6 11 21 53 35 93 13 41 38 108 54 149 43 108 46 121 29
114 -13 -4 -14 2 -10 38 3 24 9 60 13 81 6 27 5 37 -5 37 -16 0 -23 -25 -35
-124 -10 -81 -33 -159 -57 -187 -7 -8 -13 -28 -13 -43 0 -16 -4 -25 -10 -21
-6 4 -10 -10 -10 -34 0 -23 -3 -41 -8 -41 -4 0 -8 -14 -8 -31 -2 -29 -18 -58
-28 -48 -10 10 -10 74 1 72 18 -4 25 79 17 219 -4 73 -8 144 -9 158 -1 14 -3
39 -4 55 -2 17 -5 25 -7 18 -4 -8 -13 -9 -30 -3 -23 9 -24 8 -18 -18z"/>
<path d="M403 2932 c-31 -92 -14 -98 19 -7 17 48 22 75 15 75 -7 0 -22 -31
-34 -68z"/>
<path d="M2420 2992 c0 -12 45 -141 60 -174 7 -16 17 -28 21 -28 4 0 10 -66
13 -147 3 -82 8 -193 11 -248 2 -55 5 -214 5 -352 1 -145 5 -255 11 -258 5 -4
9 -14 8 -23 0 -14 -2 -13 -9 3 -7 16 -9 13 -9 -17 -1 -20 5 -39 12 -42 7 -4 8
-8 2 -11 -6 -3 -9 -24 -8 -48 2 -23 4 -105 6 -182 2 -78 7 -147 12 -154 5 -8
4 -12 -1 -8 -5 3 -9 -11 -8 -31 1 -20 2 -95 4 -165 2 -70 7 -130 12 -133 4 -3
5 -11 1 -17 -9 -15 -12 -59 -5 -71 7 -12 9 -86 2 -86 -3 0 -6 -10 -7 -23 -2
-21 -1 -21 13 -3 8 11 14 27 15 35 0 9 2 24 4 34 2 9 -1 17 -6 17 -6 0 -8 4
-4 10 3 5 12 7 19 4 10 -4 12 7 9 48 -2 29 -7 54 -11 56 -5 1 -7 16 -4 32 2
16 8 27 13 24 11 -6 6 32 -5 43 -4 5 -6 2 -4 -6 2 -7 -2 -15 -9 -18 -7 -3 -9
3 -6 16 3 12 10 21 15 21 13 0 4 85 -11 104 -7 8 -11 21 -8 28 4 8 6 7 6 -4 1
-9 5 -19 10 -22 5 -3 8 32 6 82 -1 48 -6 200 -10 337 -9 317 -8 299 -20 307
-6 5 -6 8 1 8 7 0 11 50 13 151 1 83 6 159 11 168 5 10 5 23 -1 32 -5 7 -9 69
-9 135 0 95 5 137 20 188 12 36 25 66 30 66 4 0 14 17 21 38 6 20 14 41 17 47
11 17 9 100 -2 107 -7 5 -7 8 2 8 6 0 12 8 12 18 0 14 -2 15 -10 2 -12 -19
-13 -4 -1 38 6 18 6 30 1 27 -5 -3 -10 7 -12 22 -3 26 -4 27 -15 8 -7 -13 -8
-38 -3 -75 20 -137 19 -148 -10 -181 -15 -17 -35 -55 -45 -83 -23 -64 -42 -86
-42 -49 0 18 2 21 8 12 5 -9 8 22 8 76 -1 50 -3 82 -6 73 -2 -10 -9 -18 -13
-18 -5 0 -5 12 1 28 14 34 2 214 -14 224 -21 14 -36 8 -34 -12 1 -11 4 -20 7
-20 3 0 6 -21 8 -48 2 -26 7 -51 13 -56 12 -13 12 -49 -1 -41 -6 4 -8 11 -5
16 4 5 1 9 -4 9 -6 0 -11 5 -11 11 0 18 -63 149 -72 149 -4 0 -8 -4 -8 -8z"/>
<path d="M2805 2990 c-4 -6 -5 -32 -4 -58 3 -49 -11 -61 -23 -20 -8 26 1 -97
9 -126 3 -11 1 -16 -5 -12 -5 3 -12 -18 -16 -52 -9 -79 -15 -191 -9 -167 2 11
7 27 10 35 3 8 7 31 9 50 5 62 15 120 24 144 5 13 4 29 -1 37 -5 8 -8 23 -8
34 0 20 0 20 9 0 10 -26 16 -11 28 78 6 52 6 67 -4 67 -7 0 -16 -5 -19 -10z"/>
<path d="M2922 2953 c-3 -41 -1 -45 13 -33 12 10 13 16 4 26 -9 11 -8 14 3 14
19 0 18 36 -2 37 -11 1 -16 -11 -18 -44z"/>
<path d="M2181 2946 c-16 -19 9 -40 26 -21 10 10 9 16 -1 24 -10 8 -16 8 -25
-3z"/>
<path d="M2240 2937 c0 -8 11 -19 25 -25 22 -10 25 -9 25 10 0 12 -3 18 -6 15
-4 -3 -15 -2 -25 4 -14 7 -19 6 -19 -4z"/>
<path d="M2923 2760 c0 -77 3 -143 8 -145 4 -3 8 3 8 12 0 10 1 39 3 65 3 26
1 45 -2 43 -4 -2 -4 34 -2 81 3 49 1 84 -5 84 -5 0 -10 -60 -10 -140z"/>
<path d="M436 2817 c-40 -72 -42 -79 -21 -70 9 3 14 8 11 10 -3 3 9 30 25 60
17 31 28 57 25 60 -2 2 -20 -24 -40 -60z"/>
<path d="M2197 2865 c22 -16 22 -42 -1 -57 -7 -6 -6 -11 4 -18 11 -7 17 -5 22
8 6 16 7 15 7 -1 1 -10 6 -15 11 -12 16 10 12 35 -5 35 -13 0 -14 4 -4 21 6
12 7 19 1 15 -5 -3 -15 1 -22 9 -7 8 -17 15 -23 15 -6 0 -2 -7 10 -15z"/>
<path d="M973 2829 c-23 -15 -42 -45 -78 -125 -79 -177 -120 -427 -96 -578 7
-41 12 -94 12 -118 0 -24 3 -56 6 -73 l6 -30 8 25 c4 15 7 -16 8 -76 1 -110
-17 -192 -50 -227 -52 -57 -88 -151 -66 -173 4 -4 7 -31 7 -61 0 -55 19 -76
21 -23 1 17 1 40 2 53 0 12 -3 36 -7 54 -9 39 27 111 62 119 12 4 22 10 22 15
0 5 -7 6 -15 3 -8 -4 -15 -1 -15 4 0 6 10 14 23 18 25 9 23 9 56 -1 l24 -7
-22 31 c-12 17 -18 31 -13 31 18 0 59 -39 71 -67 6 -16 25 -37 41 -48 35 -23
37 -31 12 -39 -10 -4 -36 -24 -58 -47 -31 -32 -34 -37 -14 -27 14 7 45 31 69
53 23 22 54 47 69 57 15 10 23 18 17 18 -6 0 -9 51 -8 137 2 155 -8 200 -50
223 -26 14 -29 14 -48 -10 -42 -54 -52 -83 -53 -167 -1 -70 -3 -82 -16 -77 -8
3 -22 8 -30 11 -12 3 -15 14 -10 51 3 26 2 81 -3 122 -4 41 -9 98 -11 125 -2
28 -8 94 -14 147 -11 95 -10 120 18 287 18 111 36 169 61 199 8 10 14 22 14
27 1 32 18 83 35 104 23 27 50 22 50 -9 0 -12 4 -19 9 -15 5 3 14 -10 21 -29
6 -19 17 -40 25 -46 8 -6 11 -19 8 -27 -4 -11 -2 -14 5 -9 8 5 12 0 12 -13 0
-12 3 -21 8 -21 4 0 18 -20 32 -45 14 -25 30 -45 36 -45 18 0 27 -32 12 -42
-9 -5 -4 -8 13 -8 14 0 28 3 32 6 7 7 -40 80 -84 132 -31 36 -121 211 -114
223 3 4 -1 11 -8 17 -9 8 -21 5 -44 -9z m55 -934 c5 -23 -17 -15 -36 13 -14
21 -14 22 9 14 13 -5 26 -17 27 -27z m-42 -24 c26 22 29 -20 3 -48 -17 -18
-20 -27 -11 -30 6 -3 12 -17 11 -31 0 -26 -1 -26 -9 -4 -5 12 -12 22 -15 22
-3 0 -3 -10 -1 -22 3 -13 5 -31 5 -40 1 -11 8 -18 19 -17 10 0 12 3 5 6 -7 2
-13 9 -13 15 0 6 9 3 20 -7 10 -9 18 -20 17 -24 -1 -3 3 -6 8 -6 6 0 9 3 8 8
-4 11 15 8 23 -4 3 -6 1 -15 -6 -19 -6 -4 -11 -11 -10 -16 3 -19 -19 -14 -30
6 -6 12 -14 19 -17 17 -10 -11 19 -47 37 -47 23 0 25 -15 6 -49 l-14 -25 -29
30 c-36 35 -69 163 -58 221 7 40 28 79 33 63 3 -7 8 -7 18 1z m64 -55 c0 -28
-17 -8 -25 29 -6 29 -6 29 9 11 9 -11 16 -29 16 -40z m1 -64 c7 -37 -6 -51
-28 -30 -9 10 -12 24 -7 42 8 35 27 28 35 -12z"/>
<path d="M504 2805 c-4 -16 -2 -31 6 -38 10 -9 11 -9 8 3 -3 8 -1 23 3 32 6
10 5 19 -1 23 -5 3 -12 -6 -16 -20z"/>
<path d="M544 2765 c-4 -8 -12 -15 -20 -15 -26 0 -14 -15 21 -26 19 -6 35 -7
35 -3 0 5 -7 9 -16 9 -12 0 -15 7 -12 25 6 28 1 33 -8 10z"/>
<path d="M2290 2763 c0 -6 5 -15 11 -19 7 -4 7 -9 1 -13 -5 -3 -6 -15 -1 -26
6 -16 8 -17 8 -3 1 9 9 22 19 27 16 10 16 10 0 11 -9 0 -22 8 -27 18 -6 9 -11
12 -11 5z"/>
<path d="M3 2693 c2 -50 9 -64 21 -44 3 4 -1 28 -9 52 l-14 44 2 -52z"/>
<path d="M485 2726 c-3 -9 -7 -23 -10 -32 -3 -8 0 -12 5 -9 6 3 10 2 10 -3 0
-5 6 -9 13 -10 6 0 24 -3 40 -5 15 -2 27 0 27 6 0 5 -9 7 -20 4 -12 -3 -20 0
-20 8 0 8 -8 11 -22 9 -18 -4 -16 -1 7 11 23 12 25 14 7 11 -12 -2 -20 0 -17
4 3 5 1 11 -5 15 -6 3 -12 -1 -15 -9z"/>
<path d="M2679 2700 c-4 -19 -5 -73 -4 -120 18 -628 20 -678 30 -688 8 -8 -3
662 -13 768 -6 61 -9 69 -13 40z"/>
<path d="M2137 2696 c3 -13 10 -23 17 -23 18 0 12 40 -6 43 -10 1 -14 -5 -11
-20z"/>
<path d="M2100 2671 c0 -4 -9 -8 -20 -7 -28 2 -24 -18 5 -26 15 -4 23 -2 19 3
-3 6 0 16 6 24 9 11 9 15 1 15 -6 0 -11 -4 -11 -9z"/>
<path d="M2187 2652 c-7 -16 -17 -27 -24 -25 -6 2 -14 0 -17 -6 -4 -6 -14 -7
-24 -4 -14 5 -15 3 -4 -8 15 -16 16 -59 1 -59 -6 0 -8 7 -4 18 5 13 3 14 -6 5
-13 -13 -4 -33 17 -33 14 0 18 10 15 42 -2 11 7 20 24 24 31 8 46 -3 25 -17
-13 -9 -13 -10 0 -6 10 2 16 19 17 50 2 54 -3 59 -20 19z"/>
<path d="M2340 2670 c0 -5 -6 -10 -12 -10 -15 -1 -53 -50 -39 -50 6 0 16 10
22 22 8 14 14 18 17 10 2 -6 11 -12 20 -12 15 0 15 2 2 10 -10 6 -11 10 -2 10
6 0 12 7 12 15 0 8 -4 15 -10 15 -5 0 -10 -4 -10 -10z"/>
<path d="M384 2655 c22 -16 76 -20 76 -6 0 5 10 7 23 4 18 -4 19 -3 6 6 -11 7
-27 7 -50 1 -21 -6 -37 -6 -43 0 -6 6 -15 10 -20 10 -6 0 -2 -7 8 -15z"/>
<path d="M460 2599 c0 -5 4 -9 9 -9 5 0 18 -8 27 -17 17 -17 18 -17 11 0 -4
10 -7 22 -7 26 0 4 -9 7 -20 8 -11 1 -20 -2 -20 -8z"/>
<path d="M2279 2577 c-76 -52 -214 -160 -214 -167 0 -5 -4 -12 -9 -17 -6 -5
-6 -2 -1 6 6 11 4 13 -9 8 -10 -4 -24 -7 -32 -7 -9 0 -12 -4 -9 -10 6 -9 -10
-14 -42 -13 -7 1 -10 -3 -7 -8 3 -5 -7 -14 -21 -19 -39 -15 -54 -12 -25 5 35
20 23 18 -46 -5 -75 -26 -145 -20 -230 21 -63 30 -97 57 -126 99 -9 14 -17 20
-17 13 -1 -6 6 -19 16 -28 13 -13 13 -19 4 -25 -9 -5 -10 -10 -2 -14 6 -4 11
-2 11 5 0 7 26 -13 59 -44 61 -58 94 -74 132 -62 16 5 19 4 14 -5 -6 -10 5
-11 51 -5 32 4 63 9 67 12 5 3 34 7 64 8 52 3 133 31 133 48 0 4 7 7 15 7 9 0
21 11 27 25 6 14 15 25 20 25 13 0 -3 -52 -27 -85 -40 -56 -67 -105 -70 -131
-1 -14 -13 -40 -25 -57 -19 -27 -19 -29 -2 -12 11 11 37 51 57 89 20 39 57 96
81 128 49 63 161 162 195 173 55 18 74 -115 45 -315 -21 -143 -52 -222 -130
-334 -23 -32 -45 -66 -51 -75 -5 -8 -17 -21 -25 -28 -13 -11 -13 -14 0 -23 12
-8 10 -10 -10 -11 -23 0 -23 -1 -5 -9 18 -8 17 -9 -8 -9 -16 -1 -26 -5 -22
-11 3 -5 0 -10 -8 -10 -15 0 -30 -37 -21 -52 11 -18 31 -6 53 32 12 22 34 54
49 72 15 17 27 36 27 42 0 15 47 76 58 76 5 0 4 -6 -2 -13 -6 -8 -8 -17 -4
-20 3 -4 -1 -7 -10 -7 -10 0 -14 -6 -11 -14 7 -19 -20 -71 -47 -89 -12 -9 -16
-17 -10 -21 11 -7 -25 -72 -61 -110 -11 -12 -24 -28 -29 -38 -7 -13 -5 -15 11
-11 50 13 142 163 233 378 57 134 84 294 79 465 -6 181 -47 236 -133 177z
m-109 -106 c-25 -22 -47 -38 -49 -35 -5 4 78 73 89 73 3 0 -15 -17 -40 -38z"/>
<path d="M436 2581 c-3 -5 0 -12 6 -14 10 -4 10 -6 0 -6 -9 -1 -3 -16 17 -43
24 -32 28 -45 19 -55 -6 -7 -8 -16 -4 -20 3 -3 6 0 6 8 0 9 3 10 8 3 4 -6 13
-4 25 9 18 18 18 19 -3 24 -13 3 -19 11 -16 19 3 8 1 14 -4 14 -6 0 -10 5 -10
11 0 18 -38 61 -44 50z"/>
<path d="M2930 2571 c0 -11 -5 -21 -11 -23 -8 -3 -7 -13 3 -33 l16 -29 0 52
c0 29 -2 52 -4 52 -2 0 -4 -9 -4 -19z"/>
<path d="M2418 2575 c-6 -6 9 -95 18 -104 3 -3 3 19 -1 49 -6 57 -8 63 -17 55z"/>
<path d="M626 2555 c9 -21 41 -38 49 -25 8 13 -3 30 -18 29 -9 0 -9 -2 1 -6 6
-2 12 -9 12 -14 0 -4 -7 -6 -15 -3 -8 4 -15 12 -15 20 0 8 -4 14 -10 14 -5 0
-7 -7 -4 -15z"/>
<path d="M2069 2536 c12 -14 11 -16 -8 -16 -11 0 -21 -4 -21 -8 0 -7 11 -8 52
-3 15 2 0 36 -18 40 -16 3 -17 1 -5 -13z"/>
<path d="M685 2490 c-3 -5 -16 -10 -28 -10 -18 0 -19 -2 -7 -10 10 -6 11 -10
3 -10 -7 0 -12 -10 -12 -22 1 -16 3 -18 6 -7 6 23 41 31 52 12 6 -12 10 -12
16 -4 4 7 -1 18 -11 25 -9 7 -14 18 -10 24 4 7 5 12 2 12 -3 0 -8 -4 -11 -10z"/>
<path d="M1295 2470 c3 -5 10 -10 15 -10 5 0 21 -5 37 -11 15 -7 39 -13 53
-15 14 -2 26 -8 28 -14 4 -11 41 -28 75 -35 9 -2 31 -13 47 -25 17 -12 30 -19
30 -17 0 14 -84 65 -98 60 -9 -4 -13 -2 -9 4 7 11 -59 43 -128 62 -50 14 -58
14 -50 1z"/>
<path d="M2930 2464 c0 -9 -5 -12 -12 -8 -7 5 -8 3 -4 -5 5 -7 10 -27 13 -44
8 -51 13 -45 13 16 0 32 -2 57 -5 57 -3 0 -5 -7 -5 -16z"/>
<path d="M2969 2338 c-1 -209 -15 -525 -25 -559 -8 -29 -12 -281 -4 -273 4 5
10 81 14 169 3 88 10 219 15 290 5 72 10 208 11 303 0 95 3 179 6 187 4 8 1
15 -5 15 -7 0 -11 -43 -12 -132z"/>
<path d="M1240 2441 l25 -9 -29 -1 c-42 -1 -26 -11 20 -13 21 0 48 -5 59 -11
17 -8 17 -7 -3 12 -12 12 -39 24 -60 27 -31 3 -33 2 -12 -5z"/>
<path d="M454 2411 c4 -5 2 -12 -4 -16 -13 -8 -13 -35 1 -35 5 0 7 5 4 10 -3
6 1 10 9 10 14 0 20 -10 18 -30 0 -3 -4 -14 -8 -24 -5 -13 -4 -17 3 -13 6 4
13 1 16 -5 3 -10 9 -8 23 5 12 11 14 17 6 17 -7 0 -11 4 -8 9 3 5 -1 11 -9 15
-8 3 -15 13 -15 23 0 10 -9 24 -21 31 -12 8 -18 9 -15 3z"/>
<path d="M577 2346 c-5 -12 12 -30 30 -33 6 -1 10 5 8 15 -2 9 -4 20 -4 23 -2
10 -30 6 -34 -5z"/>
<path d="M1035 2350 c-3 -5 -14 -10 -24 -10 -10 0 -18 -6 -18 -12 0 -7 -4 -22
-8 -33 -5 -15 -1 -13 17 8 13 15 29 27 35 27 6 0 13 7 17 15 6 17 -9 21 -19 5z"/>
<path d="M19 2313 c-1 -10 -2 -35 -3 -56 -2 -21 1 -40 6 -43 4 -3 8 22 8 55 0
34 -2 61 -5 61 -3 0 -5 -8 -6 -17z"/>
<path d="M487 2237 c5 -24 41 -32 55 -12 11 15 -3 27 -18 14 -11 -9 -14 -8
-14 5 0 9 -6 16 -14 16 -8 0 -12 -8 -9 -23z"/>
<path d="M363 2221 c-3 -12 -10 -21 -17 -22 -13 -1 24 -17 42 -18 6 -1 12 7
11 17 0 10 -3 12 -6 5 -2 -7 -9 -13 -14 -13 -13 0 -11 28 3 32 9 3 9 6 -1 12
-8 5 -14 1 -18 -13z"/>
<path d="M2813 2160 c0 -36 2 -50 4 -32 2 17 2 47 0 65 -2 17 -4 3 -4 -33z"/>
<path d="M489 2179 c-12 -23 -12 -49 1 -49 6 0 10 9 10 20 0 11 7 20 15 20 8
0 15 5 15 10 0 15 16 12 34 -6 9 -8 21 -12 27 -8 17 10 -19 28 -59 29 -22 1
-36 -4 -43 -16z"/>
<path d="M1771 2188 c-2 -30 41 -106 66 -117 45 -21 74 -14 103 23 12 16 9 16
-17 -3 -40 -30 -79 -23 -94 17 -6 15 -18 36 -28 47 -10 11 -21 27 -24 35 -4
12 -6 12 -6 -2z"/>
<path d="M2420 2157 c0 -19 -5 -49 -11 -66 -9 -25 -9 -35 0 -44 9 -9 11 -8 6
5 -4 9 -2 25 3 35 6 10 12 29 13 43 2 14 7 27 10 30 4 3 1 11 -7 18 -12 11
-14 7 -14 -21z"/>
<path d="M1001 2146 c-18 -19 -31 -40 -28 -48 2 -7 -5 -24 -17 -37 l-21 -23
37 23 c37 24 48 44 27 51 -6 2 1 16 15 31 24 26 31 37 23 37 -2 0 -18 -15 -36
-34z"/>
<path d="M321 2165 c-2 -5 -5 -19 -8 -30 -3 -11 -7 -47 -10 -80 -3 -44 -1 -56
7 -45 6 8 10 29 9 45 -1 17 1 37 5 47 4 9 6 29 3 45 -2 15 -5 24 -6 18z"/>
<path d="M630 2118 c0 -11 -4 -16 -10 -13 -5 3 -10 1 -10 -4 0 -6 -6 -11 -14
-11 -7 0 -16 -9 -19 -19 -4 -17 -2 -19 20 -10 27 10 38 6 38 -14 0 -13 35 -10
50 4 5 6 2 9 -9 9 -9 0 -26 5 -37 11 -19 10 -19 10 0 38 16 22 17 28 5 28 -7
0 -14 -9 -14 -19z"/>
<path d="M1046 2085 c-4 -12 0 -26 14 -39 l20 -20 0 20 c0 11 -6 28 -13 38
-13 18 -14 18 -21 1z"/>
<path d="M1473 2074 c-31 -13 -60 -50 -49 -61 3 -3 21 6 40 21 34 26 52 33 42
18 -3 -5 12 -9 32 -10 44 -3 114 -26 107 -35 -3 -4 -2 -5 2 -2 3 3 12 0 20 -6
7 -6 13 -8 12 -3 -2 23 -72 67 -114 72 -25 2 -42 8 -39 13 7 13 -16 10 -53 -7z"/>
<path d="M599 2036 c12 -14 11 -16 -4 -16 -23 0 -14 -9 13 -15 18 -3 21 0 18
18 -1 12 -11 24 -22 26 -16 3 -17 1 -5 -13z"/>
<path d="M735 2040 c16 -6 17 -9 5 -14 -21 -9 -23 -64 -2 -85 21 -22 61 -38
44 -19 -10 13 -12 18 -12 39 0 5 -4 8 -8 5 -4 -2 -14 -1 -22 4 -13 8 -12 12 4
27 10 10 16 13 12 6 -3 -6 -2 -14 4 -18 6 -4 10 6 10 23 0 18 -6 32 -16 36
-24 9 -42 6 -19 -4z"/>
<path d="M337 2033 c-10 -10 -8 -61 2 -68 5 -3 7 -18 5 -32 -3 -15 -3 -25 1
-22 11 11 14 49 4 54 -5 4 -9 14 -9 23 0 15 2 15 10 2 8 -11 9 -7 4 15 -8 36
-9 37 -17 28z"/>
<path d="M2376 1984 c-19 -57 -19 -54 -2 -54 8 0 17 -11 20 -25 8 -32 26 -23
25 13 0 15 -3 21 -6 15 -3 -10 -8 -9 -19 2 -12 12 -13 22 -5 52 15 54 6 52
-13 -3z"/>
<path d="M2910 1806 c0 -121 3 -217 6 -213 10 9 12 403 3 418 -5 8 -9 -78 -9
-205z"/>
<path d="M169 1999 c-5 -28 -2 -72 6 -79 12 -10 14 64 3 76 -5 4 -8 5 -9 3z"/>
<path d="M518 1975 c-6 -14 -15 -25 -20 -25 -5 0 -7 -4 -3 -9 3 -5 1 -12 -5
-16 -12 -7 -13 -25 -2 -25 8 0 43 64 48 88 4 20 -6 14 -18 -13z"/>
<path d="M670 1969 c-7 -11 -9 -23 -6 -27 3 -3 6 1 6 8 0 11 3 11 12 2 7 -7
17 -12 23 -12 5 0 3 5 -5 10 -10 6 -11 10 -2 10 6 0 12 7 12 15 0 22 -28 18
-40 -6z"/>
<path d="M2150 1941 c0 -5 -10 -11 -22 -14 -12 -4 -19 -9 -16 -12 3 -4 26 2
50 13 39 19 41 20 16 21 -16 1 -28 -3 -28 -8z"/>
<path d="M2446 1912 c-4 -15 -1 -45 7 -66 l13 -39 0 67 c-1 69 -10 86 -20 38z"/>
<path d="M436 1888 c-7 -34 6 -59 19 -37 5 8 4 10 -3 5 -7 -4 -12 -1 -12 8 0
8 5 18 10 21 12 8 13 35 1 35 -5 0 -11 -14 -15 -32z"/>
<path d="M505 1882 c-4 -18 -12 -35 -16 -38 -12 -7 -11 -44 1 -44 12 0 33 76
27 98 -3 11 -7 5 -12 -16z"/>
<path d="M1475 1878 c-62 -36 -87 -96 -94 -229 -3 -59 -8 -109 -11 -111 -3 -2
-24 -16 -48 -31 -56 -36 -132 -112 -132 -131 0 -26 -24 -18 -42 15 -47 82
-218 95 -279 21 -10 -11 -25 -24 -35 -30 -11 -6 -19 -25 -21 -53 -2 -24 -8
-48 -13 -53 -7 -7 -10 -6 -10 0 0 6 -9 21 -20 34 -25 29 -25 13 -1 -65 12 -36
16 -64 10 -69 -5 -6 -9 -14 -9 -20 0 -5 6 -2 13 8 13 17 14 17 30 -8 9 -14 17
-31 17 -38 0 -9 3 -9 10 2 6 10 4 21 -9 35 -21 23 -51 79 -51 95 0 20 20 0 41
-41 11 -22 23 -37 28 -35 11 7 93 -79 84 -88 -5 -5 1 -4 12 1 11 6 26 8 34 5
8 -2 11 0 7 6 -4 6 2 8 14 5 11 -3 26 -1 33 4 14 12 89 5 82 -7 -7 -12 100 -1
164 17 69 18 192 101 221 148 12 19 28 35 36 35 8 0 14 4 14 10 0 5 7 7 16 3
29 -11 11 31 -20 46 -22 10 -37 11 -66 2 -38 -11 -84 -50 -58 -48 7 0 23 -1
35 -1 l22 -2 -22 -41 c-12 -23 -33 -49 -47 -57 -14 -9 -38 -27 -55 -42 -42
-37 -98 -53 -181 -53 -52 0 -82 5 -110 20 -37 19 -59 53 -34 53 29 0 150 110
150 137 0 30 191 203 225 203 133 2 175 8 211 29 22 13 48 24 59 26 11 1 34 6
50 10 l30 7 -32 -21 c-36 -22 -45 -38 -14 -21 22 11 61 13 86 3 14 -5 12 -8
-11 -18 -27 -11 -25 -12 29 -12 32 0 63 -5 70 -12 8 -8 8 -11 -2 -11 -8 0 5
-16 28 -36 53 -47 52 -60 -1 -33 l-42 21 37 -34 c20 -20 44 -52 52 -72 8 -20
16 -36 18 -36 4 0 0 67 -5 76 -3 5 -5 26 -3 46 1 30 -4 43 -28 65 -30 28 -29
17 2 -23 9 -11 -5 2 -30 29 -32 34 -52 48 -63 44 -9 -4 -16 -2 -16 3 0 12 -83
50 -109 50 -11 0 -23 -4 -26 -10 -3 -5 -11 -10 -16 -10 -5 0 2 20 16 43 26 46
33 87 13 87 -6 0 -8 -3 -5 -6 3 -4 2 -15 -4 -26 -8 -15 -14 -17 -24 -8 -17 14
-26 0 -22 -36 4 -27 2 -29 -33 -28 -21 1 -42 4 -49 8 -6 4 -11 5 -11 1 0 -3
-13 1 -30 10 -16 8 -29 19 -28 23 1 4 -4 18 -11 30 -14 26 -7 77 9 67 6 -3 10
-17 10 -29 0 -29 36 -76 58 -76 15 1 15 2 -1 14 -14 11 -15 15 -5 19 9 4 8 6
-3 6 -18 1 -35 31 -18 31 6 0 6 7 -1 19 -9 17 -6 20 18 24 l27 4 -32 8 c-26 6
-33 13 -33 32 0 22 4 24 38 21 36 -3 37 -4 40 -46 3 -40 2 -43 -17 -37 -12 3
-21 2 -21 -3 0 -6 12 -13 26 -16 15 -4 24 -12 21 -19 -22 -53 -22 -53 0 -34
11 9 25 17 32 17 7 0 11 6 8 13 -2 7 -2 30 2 52 l6 40 15 -30 c16 -31 50 -46
50 -22 0 21 -71 113 -101 131 -47 28 -100 29 -144 4z m31 -65 c-3 -8 -6 -19
-6 -24 0 -5 -10 -9 -21 -9 -47 0 -3 -144 50 -166 9 -3 34 -9 56 -11 22 -3 41
-6 43 -8 8 -8 -31 -33 -43 -29 -8 4 -15 1 -15 -6 0 -7 -8 -9 -20 -5 -11 4 -20
2 -20 -4 0 -6 -18 -11 -41 -11 -22 0 -38 4 -35 8 3 5 -8 8 -23 7 -28 -2 -28
-1 -25 48 2 28 -1 56 -6 62 -15 18 14 112 44 144 29 30 73 33 62 4z m134 -51
c0 -28 -3 -33 -10 -22 -13 20 -13 73 0 65 6 -3 10 -23 10 -43z m-580 -342 c0
-5 6 -10 14 -10 22 0 63 -41 71 -70 5 -21 4 -22 -5 -7 -6 9 -21 17 -33 17 -18
0 -19 2 -7 10 19 12 15 13 -96 14 -55 1 -87 6 -99 16 -16 14 -16 15 11 27 35
15 144 17 144 3z m-119 -55 c24 -9 60 -17 79 -19 50 -4 90 -17 90 -28 0 -5 4
-7 8 -4 5 3 8 -5 7 -16 -2 -28 -20 -34 -51 -17 -30 16 -48 2 -49 -38 0 -21 -6
-28 -30 -35 -26 -7 -34 -4 -57 22 -16 17 -28 43 -29 58 0 15 -3 21 -6 14 -9
-24 -33 8 -33 44 0 39 8 41 71 19z m-87 -24 c-8 -37 23 -90 69 -121 l32 -21
-31 3 -32 4 21 -29 c21 -28 22 -28 38 -9 15 20 16 20 44 -11 16 -18 25 -29 21
-25 -5 4 -20 -2 -34 -13 l-26 -20 -48 48 c-27 26 -51 59 -54 73 -3 14 -10 46
-16 71 -11 47 -7 79 11 79 6 0 8 -12 5 -29z"/>
<path d="M2701 1738 c-6 -496 -5 -854 2 -830 4 15 8 188 8 385 0 219 4 355 9
352 6 -3 8 0 6 7 -12 38 -15 78 -6 73 7 -4 9 4 5 22 -3 15 -7 49 -8 75 -5 100
-14 52 -16 -84z"/>
<path d="M790 1821 c0 -24 -7 -46 -17 -57 -16 -16 -16 -17 -1 -12 9 4 19 2 22
-5 2 -7 5 16 5 51 1 34 -1 62 -4 62 -3 0 -5 -18 -5 -39z"/>
<path d="M582 1808 c-13 -22 -21 -42 -18 -45 2 -3 14 14 26 37 28 54 22 61 -8
8z"/>
<path d="M2629 1823 c-1 -10 -1 -24 0 -32 2 -8 -2 -10 -11 -5 -11 6 -11 5 0
-8 7 -8 13 -47 15 -86 1 -38 5 -68 10 -65 4 2 7 -3 7 -12 0 -9 -4 -14 -8 -11
-4 2 -8 -4 -9 -14 -2 -23 13 -35 23 -19 4 8 3 9 -4 5 -7 -4 -12 -2 -12 3 0 6
7 11 15 11 14 0 14 4 1 35 -8 19 -11 35 -5 35 9 0 4 68 -8 100 -3 8 -5 30 -4
48 2 17 0 32 -3 32 -3 0 -7 -8 -7 -17z"/>
<path d="M1965 1811 c5 -8 9 -24 10 -36 1 -26 52 -115 66 -115 6 0 2 12 -9 28
-23 32 -52 99 -46 105 3 2 -3 10 -13 18 -14 12 -16 12 -8 0z"/>
<path d="M176 1680 c6 -110 5 -104 23 -120 13 -13 14 -12 6 5 -5 11 -10 43
-11 70 -2 28 -8 68 -13 90 -9 33 -9 25 -5 -45z"/>
<path d="M643 1720 c-23 -22 -36 -40 -29 -40 12 0 76 63 76 75 0 8 -4 5 -47
-35z"/>
<path d="M730 1751 c0 -24 14 -41 34 -42 20 0 20 -1 1 -8 -11 -5 -24 -7 -30
-7 -5 1 0 -2 13 -8 26 -12 24 -32 -4 -29 -10 1 -13 0 -6 -3 6 -3 12 -12 12
-20 0 -9 -5 -12 -12 -8 -7 4 -10 4 -6 -1 4 -4 -4 -22 -17 -40 -14 -17 -25 -37
-25 -42 0 -6 -8 -13 -19 -16 -17 -4 -18 -14 -15 -123 9 -276 12 -320 19 -337
4 -10 5 -35 2 -55 -5 -26 -4 -33 3 -22 11 16 12 200 1 200 -8 0 -5 222 4 252
5 18 4 20 -4 8 -8 -12 -11 -9 -10 15 1 29 23 72 81 152 15 21 30 53 34 70 6
28 3 33 -19 38 -17 5 -24 12 -20 21 3 8 0 14 -6 14 -6 0 -11 -4 -11 -9z"/>
<path d="M2811 1723 c1 -10 5 -29 9 -43 7 -22 8 -21 9 12 1 20 -3 40 -9 43 -5
3 -10 -2 -9 -12z"/>
<path d="M436 1688 c-9 -12 -16 -31 -16 -41 0 -16 2 -17 15 -7 9 7 15 20 13
29 -1 9 1 22 5 29 14 21 -1 13 -17 -10z"/>
<path d="M488 1688 c-11 -30 -8 -144 4 -161 11 -15 13 -9 11 40 -6 143 -6 145
-15 121z"/>
<path d="M2480 1700 c-1 -3 -4 -23 -6 -46 -3 -28 0 -41 9 -41 8 0 11 12 9 36
-4 37 -9 60 -12 51z"/>
<path d="M77 1623 c4 -9 2 -14 -3 -11 -5 4 -9 -7 -9 -24 -1 -25 1 -27 11 -14
10 14 12 13 16 -9 6 -29 -10 -45 -23 -24 -6 9 -9 0 -9 -28 0 -23 4 -44 8 -47
5 -3 6 8 4 25 -3 18 0 29 8 29 7 0 10 -7 6 -15 -10 -27 2 -16 18 17 19 36 20
41 6 33 -13 -8 -9 48 5 58 6 4 5 10 -5 17 -24 15 -40 12 -33 -7z"/>
<path d="M678 1609 c-10 -5 -18 -17 -18 -25 0 -20 33 -2 36 20 1 9 2 16 1 16
-1 0 -10 -5 -19 -11z"/>
<path d="M587 1604 c-9 -10 2 -178 19 -281 8 -49 17 -112 20 -141 3 -29 10
-65 14 -80 16 -49 3 157 -20 318 -12 85 -22 163 -22 173 1 18 -1 20 -11 11z"/>
<path d="M2188 1596 c-21 -15 -24 -27 -5 -21 6 3 30 -2 52 -9 36 -13 41 -13
46 2 3 9 -1 23 -9 31 -12 13 -15 12 -24 -2 -11 -21 -35 -22 -40 -3 -2 12 -6
12 -20 2z"/>
<path d="M394 1594 c-7 -3 -8 -25 -3 -63 3 -33 5 -73 3 -91 -2 -17 0 -29 4
-26 4 2 9 31 10 63 1 32 4 73 6 91 4 31 2 35 -20 26z"/>
<path d="M2474 1580 c0 -10 8 -23 18 -29 15 -9 18 -8 18 9 0 10 -8 24 -18 29
-14 7 -18 6 -18 -9z"/>
<path d="M314 1573 c3 -10 8 -30 11 -45 6 -25 35 -48 35 -28 0 6 -4 10 -10 10
-5 0 -7 7 -4 15 4 8 1 15 -5 15 -6 0 -11 11 -11 25 0 14 -5 25 -11 25 -6 0 -8
-8 -5 -17z"/>
<path d="M2907 1573 c-6 -12 -7 -146 -1 -140 8 7 18 147 11 147 -3 0 -8 -3
-10 -7z"/>
<path d="M2297 1541 c3 -11 -16 -28 -61 -55 -37 -21 -66 -44 -66 -52 0 -25
-30 -62 -54 -68 -23 -6 -45 -36 -26 -36 14 0 96 54 97 63 1 16 64 99 70 93 8
-8 63 44 63 59 0 7 -6 12 -14 12 -7 0 -11 -7 -9 -16z"/>
<path d="M2634 1420 c0 -71 3 -130 7 -130 3 0 6 59 6 130 0 72 -4 130 -7 130
-4 0 -7 -58 -6 -130z"/>
<path d="M2114 1529 c-6 -11 41 -23 55 -14 14 8 14 -1 0 -27 -11 -21 -10 -20
27 2 46 28 67 46 42 37 -9 -3 -40 -2 -68 2 -28 4 -53 4 -56 0z"/>
<path d="M491 1478 c-5 -13 -5 -27 0 -32 5 -6 9 -15 9 -20 0 -6 -5 -4 -11 4
-8 11 -9 7 -5 -19 3 -19 6 -121 6 -227 1 -106 5 -196 10 -199 5 -3 7 -12 3
-20 -3 -8 0 -15 6 -15 8 0 10 35 6 119 -2 65 -5 189 -6 275 -1 86 -3 156 -6
156 -2 0 -8 -10 -12 -22z"/>
<path d="M2935 1480 c-8 -12 -4 -132 4 -124 5 4 9 134 4 134 -1 0 -5 -4 -8
-10z"/>
<path d="M436 1452 c-4 -13 -5 -26 -2 -29 3 -3 -4 -22 -15 -40 -22 -36 -40
-181 -21 -169 5 3 9 -1 9 -9 0 -8 -4 -12 -9 -9 -4 3 -7 -28 -6 -68 l1 -73 7
55 c5 44 7 48 9 20 6 -98 17 -169 27 -179 2 -2 3 22 3 53 -1 32 -4 53 -8 48
-7 -12 -7 296 1 318 3 8 8 22 12 32 4 9 6 29 4 45 -3 27 -4 27 -12 5z"/>
<path d="M2246 1422 c-8 -15 -23 -36 -35 -46 -21 -19 -30 -53 -11 -41 6 4 8
10 5 15 -3 4 2 13 10 20 15 12 21 4 16 -23 -1 -5 3 -6 9 -2 6 4 8 -6 5 -27 -2
-18 -7 -64 -10 -103 -3 -38 -8 -85 -11 -103 -3 -24 0 -32 8 -30 8 3 12 26 12
61 1 31 3 57 7 57 5 0 5 149 -1 160 -7 14 -4 38 8 63 16 35 7 35 -12 -1z"/>
<path d="M2354 1379 c3 -35 5 -68 5 -72 1 -5 5 -6 11 -2 5 3 7 11 5 18 -2 7
-6 34 -9 61 -8 73 -17 69 -12 -5z"/>
<path d="M2467 1411 c-3 -11 -1 -19 4 -15 5 3 9 1 9 -5 0 -5 -4 -11 -10 -13
-5 -1 -6 -9 -2 -15 6 -9 14 -2 27 20 10 17 14 29 10 25 -4 -4 -13 0 -20 9 -11
14 -12 14 -18 -6z"/>
<path d="M698 1377 c-2 -18 -1 -44 3 -58 5 -16 7 -5 8 34 1 63 -5 76 -11 24z"/>
<path d="M266 1338 c5 -61 25 -247 30 -283 3 -16 7 -55 10 -84 5 -56 9 -69 20
-58 4 4 2 39 -5 80 -7 40 -16 113 -22 163 -6 49 -12 98 -13 109 -2 11 -4 41
-5 68 0 26 -5 47 -10 47 -5 0 -7 -19 -5 -42z"/>
<path d="M1913 1290 c-2 -31 1 -50 8 -50 6 0 9 9 6 20 -3 11 -1 18 4 14 5 -3
9 1 9 10 0 8 5 16 11 18 8 3 6 10 -5 21 -26 26 -31 21 -33 -33z"/>
<path d="M2137 1323 c-4 -3 11 -14 33 -24 43 -19 56 -45 18 -36 -20 5 -21 4
-8 -6 8 -7 21 -19 29 -27 12 -13 13 -12 8 7 -2 12 0 24 5 25 6 2 5 10 -4 19
-8 8 -17 21 -21 29 -3 10 -6 11 -6 2 -1 -9 -7 -9 -24 3 -13 8 -27 12 -30 8z"/>
<path d="M2893 1270 c0 -36 2 -50 4 -32 2 17 2 47 0 65 -2 17 -4 3 -4 -33z"/>
<path d="M2089 1283 c-1 -10 0 -28 1 -41 2 -26 -25 -62 -47 -62 -8 0 -12 -4
-9 -9 4 -5 0 -12 -6 -14 -7 -3 -3 -6 9 -6 26 -1 54 9 49 18 -2 3 10 7 26 8 17
1 38 9 47 16 23 20 41 10 41 -23 0 -16 4 -31 10 -35 16 -10 6 59 -10 72 -10 8
-30 10 -59 6 -34 -4 -43 -3 -39 8 3 8 10 15 16 15 7 1 17 2 24 3 6 0 3 7 -8
15 -10 8 -19 20 -19 27 0 20 -25 22 -26 2z"/>
<path d="M722 1248 c23 -47 23 -48 14 -160 -5 -60 -4 -88 3 -88 11 0 14 28 13
130 0 81 -12 135 -32 148 -16 10 -16 7 2 -30z"/>
<path d="M2359 1283 c-2 -10 -2 4 6 -128 3 -60 10 -114 15 -119 6 -6 7 22 4
70 -2 43 -6 103 -7 131 -1 29 -5 53 -9 53 -5 0 -9 -3 -9 -7z"/>
<path d="M2490 1265 c0 -14 -4 -25 -10 -25 -5 0 -10 8 -10 18 0 14 -2 15 -10
2 -5 -9 -6 -16 0 -18 11 -4 1 -34 -14 -44 -7 -5 -4 -8 7 -8 10 0 22 10 28 23
9 21 9 21 4 -3 -2 -14 -5 -33 -5 -42 0 -10 -4 -18 -10 -18 -5 0 -7 8 -3 18 3
11 -1 9 -12 -6 -9 -13 -14 -26 -11 -29 3 -4 6 -1 6 5 0 6 7 9 15 6 8 -3 14 -9
13 -12 0 -4 1 -25 2 -47 2 -35 3 -37 9 -15 9 30 14 220 6 220 -3 0 -5 -11 -5
-25z"/>
<path d="M2634 1246 c0 -20 5 -32 12 -29 11 4 7 63 -5 63 -4 0 -7 -15 -7 -34z"/>
<path d="M560 1087 c0 -42 4 -77 9 -77 10 0 7 137 -3 147 -3 4 -6 -28 -6 -70z"/>
<path d="M1105 1150 c11 -5 47 -8 80 -8 58 0 58 1 20 9 -55 11 -127 11 -100
-1z"/>
<path d="M2137 1149 c-17 -10 -17 -12 -1 -23 16 -12 16 -13 0 -19 -10 -4 -14
-11 -11 -17 3 -6 7 -28 7 -50 0 -22 3 -40 7 -40 3 0 7 -17 8 -37 1 -42 10 -93
17 -100 2 -2 7 0 11 6 3 6 2 11 -3 11 -5 0 -7 11 -4 25 2 14 0 31 -5 38 -5 6
-9 58 -8 115 0 56 0 102 0 102 0 0 -8 -5 -18 -11z"/>
<path d="M1992 1130 c-14 -24 -7 -28 38 -20 34 6 34 6 10 14 -14 5 -27 12 -30
17 -3 4 -11 0 -18 -11z"/>
<path d="M2439 1103 c0 -10 -2 -52 -4 -93 -2 -56 -1 -68 6 -45 5 17 9 44 9 60
0 17 1 45 3 63 2 17 0 32 -5 32 -4 0 -8 -8 -9 -17z"/>
<path d="M1957 1103 c-4 -3 -2 -14 3 -24 7 -12 6 -20 -2 -25 -7 -5 -8 -2 -3 7
6 11 5 12 -6 2 -7 -7 -28 -13 -45 -13 -46 0 -50 -15 -6 -17 20 -1 40 3 43 9 4
7 27 -8 57 -36 46 -43 51 -45 49 -24 -1 25 -81 131 -90 121z"/>
<path d="M957 1083 c-8 -7 66 -69 107 -90 60 -31 75 -78 29 -86 -17 -3 -12 -4
12 -3 37 1 40 3 40 31 0 27 3 30 40 35 24 3 50 0 65 -8 l25 -14 -23 18 c-21
16 -21 17 -5 31 16 13 16 13 -4 4 -12 -6 -50 -11 -85 -11 -54 0 -72 5 -111 30
-26 16 -47 34 -47 39 0 13 -35 32 -43 24z"/>
<path d="M1025 1071 c11 -13 34 -33 50 -44 29 -20 30 -20 12 -1 -9 12 -14 24
-10 29 5 4 2 5 -5 1 -8 -5 -24 1 -40 15 l-27 24 20 -24z"/>
<path d="M1505 1070 c-22 -11 -29 -17 -15 -13 111 30 116 32 85 32 -16 0 -48
-8 -70 -19z"/>
<path d="M793 1043 c0 -24 3 -43 7 -43 9 0 22 61 15 68 -3 3 -5 -1 -6 -9 0 -8
-4 -5 -8 6 -6 15 -8 8 -8 -22z"/>
<path d="M2061 1063 c0 -10 4 -27 8 -38 7 -16 9 -13 13 18 3 26 0 37 -9 37 -7
0 -13 -8 -12 -17z"/>
<path d="M2233 1073 c-10 -3 -13 -40 -13 -135 0 -117 -2 -129 -15 -118 -9 7
-14 19 -11 27 4 9 -2 8 -18 -4 l-23 -18 36 -13 c20 -7 62 -21 94 -29 41 -11
70 -27 99 -55 39 -37 47 -65 11 -37 -10 7 -5 -1 10 -18 16 -17 30 -37 31 -44
1 -8 20 -50 43 -94 48 -96 56 -125 88 -320 14 -82 27 -165 30 -183 3 -18 10
-30 16 -27 5 4 7 10 5 14 -3 4 -8 27 -11 51 -4 25 -9 56 -11 70 -10 54 -16
106 -16 128 0 12 -4 22 -10 22 -5 0 -8 8 -7 18 6 38 -14 121 -46 192 -40 89
-58 132 -59 142 -1 4 -7 13 -13 20 -17 16 -16 33 2 48 17 14 20 50 4 50 -6 0
-8 -7 -5 -17 4 -9 1 -20 -5 -24 -13 -8 -39 13 -39 31 0 7 -7 10 -15 6 -9 -3
-19 3 -25 14 -6 11 -16 19 -23 17 -8 -1 -12 13 -11 43 0 25 -1 39 -3 32 -3 -6
-10 -9 -16 -5 -6 4 -8 0 -4 -10 3 -10 4 -24 1 -32 -5 -12 -10 -12 -27 -3 -12
7 -25 12 -28 11 -3 -1 -6 23 -5 52 1 30 3 55 6 55 7 0 6 137 0 143 -3 2 -11 2
-17 0z"/>
<path d="M660 1059 c0 -5 -4 -8 -8 -5 -10 6 0 -84 11 -102 5 -6 13 -12 18 -12
6 0 3 7 -6 16 -12 12 -14 27 -9 65 4 27 4 49 0 49 -3 0 -6 -5 -6 -11z"/>
<path d="M1330 1025 c-22 -8 -28 -13 -15 -13 11 0 36 6 55 13 22 8 28 13 15
13 -11 0 -36 -6 -55 -13z"/>
<path d="M1861 1008 c15 -11 42 -100 42 -135 0 -8 6 -9 16 -3 11 6 20 0 35
-23 11 -18 19 -35 18 -39 -2 -8 28 -12 64 -9 12 1 24 -5 28 -14 3 -8 17 -15
32 -15 19 0 25 -4 20 -15 -4 -13 -2 -13 14 -5 30 16 53 13 46 -6 -5 -14 -1
-16 23 -11 19 4 35 1 44 -7 7 -7 22 -16 34 -20 11 -4 33 -18 49 -31 16 -14 33
-25 37 -25 16 0 -6 22 -51 50 -26 16 -40 30 -32 30 9 0 26 -7 39 -16 22 -16
23 -15 19 2 -2 12 -19 23 -48 31 -25 7 -56 18 -69 25 -13 7 -47 12 -75 12 -47
-1 -48 -1 -18 8 43 12 41 21 -4 16 -33 -4 -34 -3 -18 10 17 13 15 13 -21 7
-73 -14 -90 -12 -93 11 -2 11 7 29 19 40 l22 19 -8 -25 c-4 -14 -12 -32 -18
-40 -6 -8 1 -4 15 10 31 31 30 56 -3 52 -84 -11 -81 -13 -99 58 -15 60 -18 65
-45 68 -26 3 -28 2 -14 -10z"/>
<path d="M2380 943 c0 -42 2 -74 5 -72 8 9 12 149 4 149 -5 0 -9 -34 -9 -77z"/>
<path d="M2481 960 c-3 -78 -12 -144 -21 -150 -10 -7 -8 -40 3 -40 5 0 7 7 3
15 -3 8 -1 15 3 15 11 0 24 132 18 180 -3 27 -4 22 -6 -20z"/>
<path d="M2310 986 c0 -10 5 -14 10 -11 6 3 10 2 10 -4 0 -5 -4 -11 -8 -13
-12 -4 -23 -78 -12 -78 12 0 19 25 13 52 -3 16 -2 19 5 9 7 -10 10 -7 10 13 0
14 -7 31 -14 37 -11 9 -14 8 -14 -5z"/>
<path d="M731 918 c-1 -40 -4 -89 -7 -108 -5 -25 -3 -32 4 -25 14 13 28 205
14 205 -5 0 -10 -33 -11 -72z"/>
<path d="M1760 980 c-17 -11 -83 -33 -149 -50 -23 -6 -41 -13 -39 -16 7 -6
148 35 187 56 20 10 32 19 26 19 -5 1 -17 -4 -25 -9z"/>
<path d="M1944 977 c-4 -7 -4 -9 1 -5 4 4 16 3 26 -2 21 -12 21 -50 -1 -51 -8
0 -10 -3 -4 -5 11 -5 89 24 82 31 -2 2 -25 13 -50 24 -35 15 -49 17 -54 8z"/>
<path d="M971 938 c-1 -26 2 -28 40 -28 22 0 38 4 35 9 -3 4 -17 6 -31 4 -19
-4 -27 0 -34 18 -10 24 -10 24 -10 -3z"/>
<path d="M1291 905 c-18 -27 -22 -42 -17 -70 4 -20 11 -33 17 -29 6 3 8 18 4
33 -3 16 0 34 9 46 13 18 25 20 127 17 62 -1 110 1 106 4 -4 4 -22 8 -39 10
-18 1 -60 7 -92 13 -84 16 -88 15 -115 -24z"/>
<path d="M918 902 c-10 -2 -18 -8 -18 -13 0 -6 5 -7 11 -4 13 9 38 -25 32 -42
-3 -7 -13 -13 -23 -13 -10 0 -23 -7 -30 -15 -7 -8 -16 -12 -21 -9 -5 3 -9 0
-9 -5 0 -15 -37 -51 -44 -44 -3 4 -6 1 -6 -6 0 -6 -10 -16 -22 -21 -13 -5 -17
-9 -10 -9 6 -1 12 -7 12 -14 0 -17 -36 -51 -42 -40 -3 4 -4 3 -2 -3 1 -5 -11
-21 -27 -33 -16 -13 -27 -27 -24 -31 3 -5 0 -12 -6 -15 -5 -4 -8 -14 -5 -22 4
-9 0 -21 -8 -27 -12 -9 -40 -86 -31 -86 2 0 15 20 29 45 27 46 91 103 103 91
4 -3 -11 -25 -33 -49 -51 -52 -108 -127 -99 -127 4 0 3 -6 -2 -12 -9 -11 -24
-67 -28 -103 -11 -94 -18 -117 -38 -124 -21 -8 -21 -8 0 -13 19 -5 20 -12 16
-84 -3 -56 -1 -75 6 -64 6 8 11 46 11 83 0 77 14 184 37 272 13 51 24 69 74
119 33 32 66 74 74 93 8 19 19 32 25 28 5 -3 7 0 4 8 -3 9 4 22 18 31 13 9 23
20 23 24 0 19 34 51 75 70 34 16 39 21 22 22 -13 0 -35 -6 -50 -14 -42 -22
-107 -86 -104 -101 3 -17 -74 -75 -100 -75 -13 0 -2 17 42 62 33 33 60 67 60
75 0 8 4 12 9 8 5 -3 26 6 46 19 34 23 108 50 165 58 21 4 20 5 -13 12 -42 9
-81 -6 -150 -58 -29 -21 -41 -26 -50 -17 -8 8 -7 11 5 11 8 0 24 12 34 26 22
30 83 64 115 64 l22 0 -20 23 c-11 12 -24 29 -29 37 -5 9 -17 14 -26 12z"/>
<path d="M500 845 c0 -72 15 -72 17 0 0 30 -3 55 -8 55 -5 0 -9 -25 -9 -55z"/>
<path d="M1008 871 c25 -25 29 -31 15 -32 -12 -1 -9 -4 7 -8 19 -6 27 -3 34
11 5 10 13 18 18 18 4 0 8 5 8 10 0 6 -16 10 -36 10 -19 0 -45 5 -57 11 -15 7
-12 1 11 -20z"/>
<path d="M1340 840 c0 -32 14 -40 24 -13 6 14 8 14 20 -3 8 -10 18 -15 22 -11
5 4 2 12 -6 17 -8 6 -10 10 -5 10 38 2 122 13 132 19 6 3 -33 7 -88 9 l-99 3
0 -31z"/>
<path d="M2380 810 c0 -52 15 -52 16 0 0 22 -3 40 -8 40 -4 0 -8 -18 -8 -40z"/>
<path d="M1388 795 c-4 -5 -51 -11 -96 -14 -9 -1 -11 -8 -7 -21 5 -15 2 -20
-12 -21 -16 0 -16 -1 2 -9 11 -5 31 -9 44 -9 l23 -1 -22 18 c-26 21 -19 47 8
33 42 -23 92 -41 109 -41 15 0 16 2 3 10 -8 5 -25 10 -38 10 -20 0 -21 3 -12
21 11 19 9 35 -2 24z"/>
<path d="M1101 747 c-1 -5 4 -17 9 -28 13 -23 62 -26 80 -4 7 8 17 12 23 8 5
-3 7 -1 4 5 -5 7 -16 7 -37 -1 -25 -10 -33 -9 -41 3 -9 13 -10 12 -5 -2 8 -26
-9 -22 -22 5 -6 12 -11 18 -11 14z"/>
<path d="M2546 708 c-10 -39 -7 -125 4 -108 8 12 12 130 4 130 -1 0 -4 -10 -8
-22z"/>
<path d="M2366 600 c51 -55 66 -78 59 -90 -4 -6 -1 -9 7 -8 8 2 12 -5 11 -17
-1 -11 2 -22 7 -25 19 -12 44 -124 77 -343 12 -81 21 -117 30 -117 9 0 12 8 9
23 -3 12 -7 47 -11 77 -8 73 -42 250 -62 325 -19 70 -121 215 -151 215 -7 0 4
-18 24 -40z"/>
<path d="M1867 514 c-3 -3 -3 -13 0 -21 3 -8 0 -19 -8 -24 -11 -6 -11 -11 -1
-21 9 -9 12 -9 12 5 0 12 8 17 28 17 16 0 36 6 46 13 16 12 14 13 -18 9 -28
-3 -36 -1 -36 12 0 16 -11 21 -23 10z"/>
<path d="M1420 494 c8 -4 18 -11 21 -16 3 -5 18 -11 33 -14 26 -4 27 -3 13 11
-9 8 -31 18 -49 20 -18 3 -26 2 -18 -1z"/>
<path d="M830 423 c-7 -32 -19 -65 -25 -73 -7 -8 -16 -26 -20 -40 -5 -20 -1
-17 19 13 15 20 31 37 37 37 5 0 7 11 3 25 -4 16 0 34 10 50 20 30 20 45 3 45
-9 0 -19 -23 -27 -57z"/>
<path d="M1520 462 c0 -10 5 -24 11 -32 9 -13 10 -12 5 3 -4 12 0 17 15 17 24
0 17 16 -11 23 -14 4 -20 0 -20 -11z"/>
<path d="M681 368 c-11 -35 -25 -92 -30 -128 -14 -87 -19 -240 -9 -240 10 0
17 32 22 110 8 115 29 241 51 308 2 6 0 12 -4 12 -5 0 -19 -28 -30 -62z"/>
<path d="M769 158 c-6 -53 -6 -77 1 -73 7 4 11 85 4 85 -2 0 -5 -6 -5 -12z"/>
</g>
</svg>
