<?xml version="1.0" standalone="no"?>
<!DOCTYPE svg PUBLIC "-//W3C//DTD SVG 20010904//EN"
 "http://www.w3.org/TR/2001/REC-SVG-20010904/DTD/svg10.dtd">
<svg version="1.0" xmlns="http://www.w3.org/2000/svg"
 width="300.000000pt" height="300.000000pt" viewBox="0 0 300.000000 300.000000"
 preserveAspectRatio="xMidYMid meet">
<metadata>
Created by potrace 1.10, written by Peter Selinger 2001-2011
</metadata>
<g transform="translate(0.000000,300.000000) scale(0.100000,-0.100000)"
fill="#000000" stroke="none">
<path d="M335 2985 c4 -11 12 -33 18 -50 13 -38 62 -127 97 -180 15 -22 40
-64 56 -92 16 -29 32 -53 37 -53 4 0 7 -5 7 -11 0 -15 84 -123 148 -191 l55
-57 -12 -47 c-7 -25 -18 -53 -26 -61 -24 -23 -20 -163 5 -208 11 -20 20 -41
20 -47 0 -7 13 -26 29 -43 50 -51 46 -57 -43 -61 -82 -3 -100 -9 -76 -24 8 -6
10 -10 4 -10 -5 0 -15 5 -20 10 -7 7 -23 2 -50 -17 -21 -15 -59 -32 -84 -39
-26 -7 -35 -13 -23 -13 l23 -1 -20 -52 c-11 -29 -20 -63 -20 -76 0 -22 -3 -23
-71 -21 -54 2 -74 -2 -87 -14 -15 -16 -15 -18 3 -32 11 -8 25 -13 31 -11 5 2
59 -4 120 -15 60 -10 123 -18 140 -19 38 0 44 -11 35 -70 -14 -96 12 -111 28
-17 17 96 17 95 -36 102 -27 4 -97 15 -158 25 -60 10 -119 17 -130 16 -11 0
-21 4 -22 9 -3 12 28 12 114 2 l63 -8 -6 30 c-12 57 4 100 56 152 27 27 54 49
61 49 7 0 -6 -13 -28 -29 -41 -30 -83 -100 -83 -139 0 -46 21 -70 69 -81 92
-20 111 -22 111 -13 0 5 -27 13 -61 16 -110 13 -134 67 -70 161 42 61 101 90
186 90 51 -1 82 -7 115 -23 50 -24 100 -87 100 -124 0 -33 -36 -65 -95 -83
l-50 -14 -27 29 c-15 17 -30 30 -34 30 -4 0 5 -13 21 -30 l29 -30 -52 0 -52 0
0 -74 c0 -41 -5 -87 -10 -102 -13 -33 -4 -45 55 -73 50 -24 83 -28 45 -6 l-25
14 38 1 c20 0 37 5 37 11 0 6 9 8 20 4 11 -4 20 -2 20 4 0 6 -8 11 -19 11 -15
0 -19 11 -24 78 -4 42 -9 87 -13 99 -5 18 1 23 48 37 84 24 120 74 92 129 -42
82 -97 117 -204 127 l-75 7 84 2 85 1 50 -42 c28 -23 45 -35 38 -26 -9 11 -10
18 -2 23 5 3 10 2 10 -3 0 -5 6 -9 13 -9 18 -1 264 -122 249 -122 -7 -1 -22 4
-33 9 -26 14 -24 2 3 -20 l22 -18 -57 -26 c-32 -14 -63 -26 -71 -26 -7 0 -16
-3 -20 -7 -4 -4 -41 -21 -83 -38 -42 -16 -78 -35 -80 -42 -5 -14 25 -4 207 70
140 57 204 75 213 60 6 -9 -102 -55 -262 -113 l-74 -27 81 -13 c45 -8 82 -17
82 -22 0 -11 -25 -10 -100 7 -36 8 -81 14 -100 14 -25 -1 -13 -6 45 -20 44
-10 92 -19 108 -21 15 -1 27 -3 27 -5 0 -7 -90 -47 -144 -65 -70 -23 -147 -61
-307 -151 -135 -76 -380 -219 -499 -291 -47 -29 -100 -58 -117 -65 -18 -8 -33
-17 -33 -22 0 -5 2 -9 4 -9 16 0 102 44 211 109 72 43 153 88 180 101 87 41
176 96 168 104 -4 4 0 4 8 1 16 -6 41 6 164 78 151 89 224 127 245 127 26 0
165 80 221 128 30 26 42 31 56 24 10 -6 94 -31 186 -56 93 -26 175 -50 183
-53 8 -3 14 -1 14 4 0 8 -199 67 -317 94 -56 13 -64 26 -34 53 17 15 27 14
167 -24 82 -21 164 -44 182 -49 17 -5 32 -6 32 -2 0 8 -164 56 -299 88 l-73
17 -24 -27 c-13 -15 -26 -27 -30 -27 -10 0 37 50 58 61 15 8 274 -51 350 -80
24 -9 26 -7 35 34 l10 44 -51 16 c-28 8 -126 31 -218 50 -92 20 -197 47 -233
60 -230 87 -405 221 -440 338 -67 224 197 589 561 774 145 74 336 139 459 156
17 2 -23 5 -87 6 -106 1 -120 -1 -138 -19 -11 -11 -29 -20 -40 -20 -11 0 -20
-4 -20 -10 0 -5 -13 -10 -29 -10 -16 0 -31 -3 -33 -8 -1 -4 -53 -33 -114 -64
-122 -62 -231 -134 -226 -150 1 -5 -2 -7 -7 -4 -9 6 -54 -35 -79 -72 -10 -16
-21 -21 -36 -17 -11 2 -15 2 -8 -1 18 -8 15 -27 -4 -20 -8 3 -13 2 -10 -3 3
-5 -1 -12 -10 -15 -8 -3 -13 -10 -9 -15 3 -6 -4 -8 -15 -6 -11 2 -18 0 -15 -5
3 -6 -8 -30 -25 -55 -32 -46 -49 -61 -30 -25 9 17 8 20 -9 20 -14 0 -18 -5
-14 -19 3 -11 -2 -21 -11 -24 -18 -7 -140 120 -220 228 -63 85 -171 246 -192
287 -9 17 -18 27 -21 25 -8 -8 32 -78 133 -232 91 -139 213 -289 274 -337 25
-20 31 -30 25 -47 -10 -32 -24 -26 -78 32 -102 108 -224 283 -345 497 -30 52
-51 86 -47 75z m897 -1413 c-62 -58 -102 -76 -145 -68 -35 7 -52 26 -23 26 7
0 40 12 72 27 32 14 65 26 73 26 9 0 22 6 29 14 7 7 18 13 24 13 6 0 -7 -17
-30 -38z m-440 -28 c19 -108 5 -148 -58 -159 -47 -9 -51 1 -46 102 l4 92 37 4
c53 5 55 4 63 -39z"/>
<path d="M755 1507 c0 -29 -4 -63 -8 -77 -8 -24 -7 -24 7 -6 17 20 23 121 9
129 -5 3 -8 -18 -8 -46z"/>
<path d="M2155 2993 c138 -18 327 -78 468 -150 119 -61 196 -114 305 -210 l72
-65 0 46 c0 25 -4 46 -10 46 -5 0 -7 -7 -4 -15 10 -26 -5 -17 -101 60 -51 41
-95 75 -98 75 -3 0 -32 17 -64 38 -61 40 -217 111 -293 133 -25 7 -56 19 -70
27 -24 13 -24 13 10 7 19 -2 51 -1 70 4 24 6 -19 9 -140 8 -96 0 -161 -2 -145
-4z"/>
<path d="M1750 2959 c-208 -44 -411 -130 -561 -235 -274 -192 -456 -476 -410
-641 33 -121 205 -251 436 -333 50 -17 153 -44 230 -61 77 -16 162 -36 189
-44 69 -21 73 -20 79 28 2 23 8 50 12 59 5 13 1 20 -11 24 -83 27 -277 106
-359 147 -112 56 -208 140 -217 191 -7 38 9 84 34 97 26 14 240 24 299 15 40
-7 49 -14 97 -78 40 -53 55 -83 63 -125 13 -67 39 -130 80 -190 30 -44 31 -48
25 -116 -11 -116 -34 -199 -85 -298 -27 -52 -66 -129 -87 -171 l-39 -77 -102
-51 c-55 -28 -109 -60 -119 -71 -24 -27 -6 -24 39 6 36 25 37 25 37 5 0 -31
41 -51 237 -115 98 -32 220 -73 272 -92 l94 -34 43 28 c104 68 163 119 181
158 19 41 55 80 85 90 12 4 15 14 12 38 -9 59 3 62 105 26 55 -19 91 -37 91
-45 0 -8 -33 -38 -72 -68 -40 -29 -108 -83 -151 -119 -43 -36 -96 -78 -117
-92 -36 -25 -41 -26 -55 -11 -21 20 -36 20 -61 0 -18 -14 -18 -15 4 -4 19 9
28 8 49 -5 20 -13 22 -19 12 -25 -7 -5 -17 -6 -23 -3 -5 3 -6 1 -2 -5 11 -19
-48 -4 -154 38 -116 46 -205 74 -302 94 -40 9 -84 19 -98 22 -18 5 -22 4 -15
-4 6 -6 55 -20 110 -31 115 -24 198 -50 308 -98 43 -18 93 -33 110 -33 31 -1
31 -1 12 -16 -11 -8 -44 -22 -74 -30 l-53 -16 -162 58 c-88 31 -225 81 -303
109 -79 29 -143 49 -143 45 0 -7 239 -100 255 -100 3 0 78 -27 167 -61 196
-73 219 -74 329 -11 39 23 78 42 85 42 8 0 54 -16 104 -36 49 -20 95 -34 102
-31 10 3 9 6 -2 10 -8 3 -57 21 -108 39 l-92 34 24 23 23 22 121 -41 c66 -22
144 -51 173 -64 l53 -23 -48 -22 c-27 -12 -46 -24 -42 -28 3 -3 27 4 52 17 46
22 48 22 99 6 63 -20 66 -20 59 -1 -4 8 -24 18 -45 21 -21 4 -39 9 -39 12 0 2
66 69 147 148 81 78 144 146 141 150 -4 3 -46 -35 -94 -85 -105 -111 -112
-115 -156 -97 -18 8 -91 28 -163 46 -71 18 -136 34 -144 36 -9 3 13 25 55 57
38 28 89 71 113 95 56 54 51 60 -84 105 l-100 33 -24 70 c-21 60 -24 88 -25
218 l-1 149 90 24 c157 41 245 74 289 108 l43 33 79 -57 c85 -61 100 -87 67
-123 -67 -74 -238 -97 -456 -59 l-108 18 7 -61 c3 -34 9 -64 13 -67 8 -8 203
-36 341 -50 105 -10 265 -7 348 8 26 4 32 10 32 30 0 23 -3 24 -27 17 -16 -4
-39 -8 -53 -8 -14 -1 -31 -5 -37 -9 -17 -11 -276 -7 -343 5 -178 31 -214 40
-226 56 -27 34 -17 45 32 38 25 -3 51 -9 57 -13 6 -3 56 -8 111 -10 95 -4 127
1 266 38 22 6 80 78 80 100 0 23 4 23 33 4 31 -20 107 -46 107 -36 0 5 -19 16
-42 25 -24 9 -101 55 -173 102 -142 93 -424 237 -550 279 -44 15 -112 40 -151
55 -93 37 -401 114 -536 134 -188 28 -358 16 -491 -34 -50 -19 -197 -110 -197
-122 0 -4 24 -12 53 -18 39 -9 67 -9 112 -1 88 16 93 31 9 31 -88 0 -116 15
-46 25 28 4 59 13 69 20 14 11 8 11 -32 -1 -80 -23 -86 -11 -10 22 39 17 81
35 94 39 21 6 23 5 15 -11 -30 -66 12 -151 106 -217 30 -21 55 -43 55 -49 0
-5 -18 -20 -40 -32 -22 -11 -42 -22 -45 -24 -2 -2 1 -6 7 -10 9 -6 15 -52 8
-52 -1 0 -34 16 -73 35 -66 32 -91 55 -59 55 14 0 121 70 115 75 -7 8 -84 -21
-130 -47 -50 -30 -63 -33 -73 -18 -10 16 18 50 68 82 35 22 45 33 35 39 -20
13 -38 11 -38 -5 0 -7 -12 -22 -27 -31 -16 -10 -35 -26 -44 -37 -27 -34 -65
-10 -163 104 -42 48 -47 126 -15 220 20 62 86 174 95 165 3 -3 -1 -16 -9 -29
-27 -42 -28 -73 -6 -102 11 -14 25 -26 30 -26 6 0 1 12 -10 26 -44 56 -23 96
146 283 22 25 43 51 45 56 1 6 6 9 11 7 4 -1 6 3 5 9 -2 6 3 14 11 17 9 3 11
0 6 -9 -6 -9 -2 -8 11 2 10 9 46 30 79 47 33 17 86 46 119 66 108 65 275 109
461 120 158 10 202 -9 175 -74 -19 -45 -85 -85 -200 -120 -224 -69 -383 -92
-416 -58 -16 16 -19 15 -51 -9 -38 -29 -45 -53 -8 -29 26 17 75 22 75 8 0 -5
-16 -17 -35 -28 -29 -15 -40 -17 -66 -7 -28 11 -32 10 -65 -26 -19 -21 -58
-49 -87 -61 -58 -25 -93 -50 -116 -83 -10 -14 1 -8 30 16 54 44 76 47 85 11
15 -57 -31 -107 -134 -147 -52 -21 -170 -97 -176 -114 -5 -12 38 10 54 27 15
16 62 40 79 40 11 0 55 18 97 40 88 46 84 44 84 27 0 -16 42 -57 58 -57 18 0
15 10 -10 29 -32 27 -27 76 13 117 39 41 80 45 103 12 29 -41 11 -109 -36
-142 -21 -15 -21 -16 -3 -16 42 1 82 56 87 120 3 30 7 36 33 41 27 6 25 7 -13
8 -26 1 -54 9 -68 20 -19 15 -31 17 -59 11 -20 -4 -42 -14 -51 -20 -12 -11
-17 -10 -29 6 -13 17 -12 21 7 34 11 8 36 30 55 47 27 26 39 31 53 23 22 -12
63 0 122 33 29 16 65 27 110 30 90 8 316 70 393 108 65 33 107 76 118 121 6
22 1 34 -21 59 l-27 31 -112 -1 c-128 -1 -248 -20 -348 -55 -110 -38 -112 -38
-75 -18 104 58 379 122 524 122 64 0 78 -3 112 -28 22 -16 64 -37 94 -47 169
-54 320 -192 320 -292 0 -120 -119 -232 -310 -294 -50 -15 -53 -18 -29 -24 35
-9 211 79 267 132 79 76 108 175 74 253 -17 41 -87 119 -137 154 -36 25 -135
76 -148 76 -11 0 -34 11 -94 46 -28 15 -27 16 27 10 112 -12 362 -89 445 -138
17 -10 47 -25 68 -34 20 -9 37 -20 37 -25 0 -5 5 -9 11 -9 21 0 136 -89 223
-171 67 -63 86 -77 86 -61 0 26 -139 155 -241 224 -140 95 -283 158 -479 210
-100 26 -136 31 -275 34 -133 3 -176 0 -255 -17z m-360 -143 c0 -2 -37 -25
-82 -52 -141 -80 -137 -78 -103 -50 17 15 64 44 105 66 80 42 80 42 80 36z
m-351 -253 c-30 -32 -71 -78 -92 -102 -20 -25 -37 -39 -37 -32 0 11 167 191
178 191 3 0 -19 -26 -49 -57z m633 -389 c87 -17 88 -17 80 -43 -4 -14 -7 -56
-6 -93 l1 -67 -49 41 c-27 22 -76 74 -110 115 -59 73 -60 75 -32 70 16 -4 68
-14 116 -23z m283 -74 c77 -23 150 -48 162 -55 32 -21 38 -87 35 -385 -3 -242
-1 -282 23 -445 21 -146 24 -184 14 -207 -13 -32 -137 -147 -186 -172 -30 -15
-35 -15 -110 13 -43 16 -165 57 -271 92 -180 59 -238 87 -230 111 2 6 24 22
48 35 25 14 55 31 67 39 20 12 22 12 25 -9 3 -23 34 -29 69 -13 13 6 18 -1 23
-37 9 -62 33 -80 110 -85 66 -4 288 23 318 39 9 5 27 24 40 41 21 31 23 43 23
168 0 160 -5 254 -15 270 -4 6 -7 -78 -6 -187 1 -138 -3 -206 -11 -226 -16
-35 -60 -54 -138 -60 -33 -3 -73 -10 -88 -16 -35 -14 -137 -14 -171 -1 -54 20
-43 133 27 280 18 38 30 70 26 70 -3 0 -30 -52 -60 -115 -33 -71 -60 -117 -71
-120 -10 -3 -28 -8 -39 -11 -21 -6 -22 -4 -16 35 3 24 30 85 66 148 109 192
140 331 146 660 2 95 6 177 10 183 4 6 14 9 23 6 10 -2 80 -23 157 -46z m-206
-184 c0 -17 -3 -49 -7 -71 l-8 -40 -27 46 c-27 46 -67 150 -67 176 0 8 24 -6
55 -33 45 -39 55 -53 54 -78z m614 35 c5 -5 -14 -25 -42 -45 -60 -44 -66 -61
-82 -226 -17 -178 -8 -336 24 -431 30 -89 27 -140 -10 -178 -13 -13 -26 -22
-29 -19 -2 3 -14 61 -26 129 -17 104 -21 182 -25 486 l-5 362 94 -35 c51 -20
97 -39 101 -43z m165 -78 c72 -37 132 -70 132 -74 0 -17 -158 -82 -274 -114
-71 -19 -131 -34 -132 -32 -1 1 3 44 8 95 l11 94 53 40 c30 22 54 44 54 49 0
16 12 11 148 -58z m-1015 -68 c33 -9 34 -21 5 -52 -28 -30 -48 -29 -48 2 0 31
-17 33 -22 3 -5 -39 -32 -27 -39 17 l-6 40 -8 -33 c-12 -50 -25 -49 -25 2 0
57 -15 60 -24 5 -6 -39 -8 -41 -34 -34 -15 3 -38 17 -51 29 l-23 24 33 44 34
45 90 -43 c49 -23 102 -46 118 -49z m116 -44 c40 -16 68 -32 62 -35 -6 -4 -11
-16 -11 -27 0 -14 -7 -19 -26 -19 -23 0 -133 28 -142 35 -2 2 6 13 17 24 12
12 21 28 21 36 0 19 -8 20 79 -14z m819 -901 c83 -22 163 -45 178 -50 l27 -11
-38 -39 c-22 -22 -42 -40 -47 -40 -4 0 -23 11 -42 24 -41 27 -215 86 -257 86
-16 0 -29 3 -29 7 0 6 51 63 56 63 2 0 70 -18 152 -40z"/>
<path d="M1856 1758 c-3 -7 -7 -25 -10 -40 -8 -34 -24 -36 -31 -5 -4 13 -14
23 -26 24 -10 1 -19 0 -19 -3 0 -3 23 -30 51 -60 l52 -54 -12 -57 c-6 -31 -11
-74 -11 -95 0 -82 60 -18 76 80 4 26 3 42 -3 42 -6 0 -13 -21 -17 -47 -4 -27
-14 -59 -22 -73 -14 -23 -15 -19 -9 60 3 47 12 94 18 104 7 10 33 27 57 37 42
17 43 18 16 18 -16 1 -38 -6 -48 -16 -17 -15 -18 -15 -18 9 0 51 68 78 91 36
14 -26 33 -238 32 -358 -1 -100 -24 -207 -57 -266 -14 -25 -18 -40 -11 -38 17
7 51 86 71 166 12 47 15 92 12 178 -3 63 -9 123 -13 133 -4 10 -3 17 3 17 6 0
15 -13 21 -30 5 -16 13 -30 16 -30 10 0 -7 55 -21 66 -8 7 -13 27 -12 50 2 66
-36 154 -68 154 -37 0 -65 -25 -77 -67 -17 -63 -31 -53 -24 17 6 55 2 79 -7
48z"/>
<path d="M1763 1338 c-33 -37 -43 -64 -50 -134 -5 -51 -3 -68 8 -75 39 -25 70
6 98 99 28 90 25 126 -9 130 -17 2 -33 -5 -47 -20z m55 -33 c4 -45 -40 -150
-63 -150 -27 0 -29 45 -1 46 20 0 20 1 -1 9 -25 10 -30 38 -12 73 33 63 72 74
77 22z"/>
<path d="M1508 1072 c-58 -3 -69 -11 -45 -29 33 -27 117 -18 117 12 0 19 -7
20 -72 17z m46 -24 c-7 -10 -55 -10 -72 0 -8 5 5 9 32 9 25 0 43 -4 40 -9z"/>
<path d="M1923 963 c50 -3 70 -8 74 -19 8 -22 -15 -34 -69 -34 -60 0 -78 7
-78 33 0 16 -3 18 -11 10 -19 -19 -2 -42 41 -62 35 -16 46 -16 76 -6 50 17 72
41 58 63 -9 13 -26 17 -85 18 l-74 1 68 -4z"/>
<path d="M265 2810 c-4 -7 -3 -16 3 -22 14 -14 45 -2 40 15 -6 16 -34 21 -43
7z"/>
<path d="M868 2808 c-3 -7 -3 -19 -1 -25 5 -15 43 -18 43 -3 0 5 -7 7 -15 4
-10 -4 -15 0 -15 11 0 11 5 15 16 11 8 -3 12 -2 9 4 -9 14 -32 12 -37 -2z"/>
<path d="M2177 2710 c6 -116 11 -131 11 -35 0 44 -3 89 -7 100 -4 11 -6 -18
-4 -65z"/>
<path d="M5 2600 c-4 -6 20 -8 67 -4 108 9 203 -15 302 -73 156 -93 264 -232
254 -326 -7 -60 -34 -111 -74 -142 l-34 -26 -32 36 c-63 72 -183 112 -370 122
-86 4 -118 3 -118 -5 0 -8 33 -12 106 -12 l107 0 -5 -84 c-3 -58 -10 -92 -22
-111 -10 -15 -13 -24 -6 -20 23 14 40 75 40 141 l0 67 42 -7 c23 -4 44 -8 46
-10 6 -6 -27 -78 -66 -144 -37 -61 -37 -62 -79 -60 -23 2 -41 7 -40 12 3 12
-62 34 -98 34 -22 0 -15 -3 23 -12 71 -18 73 -23 4 -20 -31 1 -44 0 -27 -2 17
-2 49 -9 73 -16 40 -10 43 -14 57 -62 27 -93 46 -200 52 -286 3 -47 12 -100
19 -119 8 -19 13 -35 12 -35 -67 -27 -145 -46 -185 -46 -29 0 -53 -4 -53 -9 0
-12 139 -23 295 -24 136 0 197 -9 140 -20 -16 -4 -118 -14 -225 -23 -107 -8
-197 -17 -199 -19 -5 -5 374 5 426 11 45 5 61 25 36 45 -13 11 -122 23 -278
29 l-40 2 43 13 c24 8 49 11 57 8 9 -3 15 1 15 11 0 24 53 46 133 54 l72 7
-113 23 c-63 13 -116 21 -119 18 -3 -3 -3 -13 1 -22 4 -11 10 -13 19 -6 7 5
31 7 57 2 l45 -7 -28 -11 c-16 -7 -33 -12 -38 -12 -5 0 -17 -8 -28 -19 -18
-18 -19 -17 -30 33 -6 28 -18 101 -26 161 -9 61 -24 147 -34 193 -17 79 -17
83 0 92 10 6 35 10 56 10 112 1 272 60 338 125 50 51 65 91 65 178 l0 73 -66
72 c-99 109 -221 189 -329 218 -58 16 -231 19 -240 4z m380 -480 c58 -25 102
-55 115 -80 9 -17 5 -22 -28 -39 -55 -28 -252 -73 -252 -58 0 2 20 34 44 70
24 36 47 80 51 96 8 37 10 37 70 11z"/>
<path d="M2150 2492 c-12 -39 -19 -47 -40 -48 -14 0 -33 -1 -42 -2 -20 -2 -48
-50 -48 -81 0 -11 -12 -28 -26 -37 -24 -16 -30 -16 -102 4 -104 28 -182 45
-187 40 -3 -2 18 -10 45 -17 51 -13 62 -24 35 -35 -8 -3 -15 -12 -15 -20 0
-18 27 -46 45 -46 22 0 47 31 42 51 -6 23 -6 23 63 4 64 -17 93 -20 72 -6 -10
6 -7 10 13 15 16 4 32 3 38 -3 6 -6 28 -11 49 -11 69 0 109 66 72 118 -14 20
-14 28 -1 72 19 64 7 66 -13 2z m-12 -84 c28 -28 0 -88 -43 -88 -28 0 -45 18
-45 50 0 14 5 31 12 38 7 7 24 12 38 12 14 0 31 -5 38 -12z m-294 -104 c9 -22
-1 -34 -29 -34 -29 0 -41 16 -25 35 16 20 46 19 54 -1z"/>
<path d="M143 2517 c-58 -10 -62 -12 -57 -33 8 -32 -11 -61 -54 -83 -32 -17
-34 -20 -14 -21 40 0 89 60 83 102 -1 6 28 13 85 21 7 1 23 -10 37 -25 32 -34
54 -35 95 -4 30 21 31 24 12 29 -13 3 -20 0 -20 -9 0 -7 -9 -18 -20 -24 -28
-15 -60 4 -60 35 0 14 -5 24 -12 23 -7 0 -41 -6 -75 -11z"/>
<path d="M370 2492 c0 -7 14 -31 30 -54 34 -46 37 -63 15 -72 -23 -8 -48 -75
-41 -108 5 -27 126 -179 126 -159 0 5 -11 23 -25 39 l-25 29 43 6 c46 6 87 43
87 78 0 43 -60 119 -105 133 -12 3 -28 18 -37 33 -27 44 -67 89 -68 75z m106
-147 c14 -13 13 -15 -3 -15 -10 0 -29 -7 -41 -16 -24 -17 -29 -5 -10 26 15 24
34 26 54 5z m52 -56 c17 -16 32 -37 32 -45 0 -28 -38 -54 -80 -54 -35 0 -43 5
-60 32 -21 35 -19 48 5 28 16 -14 21 0 5 16 -15 15 17 54 43 54 12 0 37 -14
55 -31z"/>
<path d="M587 2424 c-10 -10 -9 -44 2 -44 5 0 7 9 4 20 -4 16 0 20 21 20 30 0
34 -16 9 -37 -16 -13 -16 -13 5 -3 30 15 25 44 -8 48 -14 2 -29 0 -33 -4z"/>
<path d="M2040 2275 c14 -8 19 -14 13 -15 -21 0 -53 -39 -53 -63 0 -53 75 -77
104 -35 21 29 20 57 -1 80 -15 17 -15 18 8 18 37 1 3 16 -51 23 -43 5 -44 5
-20 -8z m48 -47 c16 -16 15 -33 -4 -52 -21 -22 -41 -20 -54 5 -9 16 -8 25 6
40 20 22 35 24 52 7z"/>
<path d="M2526 2139 c-36 -10 -63 -34 -70 -65 -4 -13 -10 -24 -15 -24 -10 0
19 -61 41 -87 26 -32 74 -44 123 -32 25 6 43 15 40 19 -3 4 2 21 10 37 37 74
-48 174 -129 152z m80 -53 c59 -59 41 -131 -34 -131 -116 0 -134 160 -18 164
10 1 33 -14 52 -33z"/>
<path d="M2990 1990 c0 -25 -4 -30 -23 -30 -50 0 -76 -70 -39 -103 23 -21 72
-23 72 -3 0 8 -8 12 -23 9 -31 -6 -51 19 -43 53 6 22 11 25 36 22 29 -4 30 -4
30 39 0 24 -2 43 -5 43 -3 0 -5 -13 -5 -30z"/>
<path d="M1170 1884 l-75 -33 43 -1 c41 0 122 40 122 61 0 13 -7 11 -90 -27z"/>
<path d="M953 1789 c6 -10 14 -16 18 -13 4 2 9 -3 13 -11 3 -8 11 -15 19 -15
7 0 32 -9 56 -21 23 -11 50 -18 59 -16 15 4 15 5 1 6 -9 0 -36 12 -60 26 -24
13 -61 33 -81 43 -34 18 -36 18 -25 1z"/>
<path d="M685 1781 c-3 -5 4 -12 15 -16 15 -5 20 -15 20 -40 0 -31 -5 -37 -62
-69 -35 -20 -56 -36 -48 -35 17 0 117 46 112 51 -2 2 2 15 9 30 20 44 63 27
100 -41 14 -26 18 -29 13 -11 -3 14 -12 35 -20 47 -15 24 -5 37 20 27 9 -3 16
-1 16 5 0 6 -4 11 -10 11 -5 0 -10 7 -10 17 0 15 -1 15 -18 0 -26 -23 -48 -21
-86 8 -36 28 -42 29 -51 16z"/>
<path d="M142 1672 c-1 -29 -9 -69 -17 -88 -22 -54 -98 -154 -113 -149 -7 3
-10 0 -7 -5 7 -12 35 -13 35 -2 0 4 18 30 41 57 56 68 71 107 66 180 l-3 60
-2 -53z"/>
<path d="M935 1630 c-10 -11 -41 -28 -69 -39 -39 -15 -45 -20 -25 -20 27 -1
119 52 119 69 0 14 -5 13 -25 -10z"/>
<path d="M2907 1583 c39 -34 93 -67 93 -56 -1 4 -29 25 -63 46 -51 31 -56 32
-30 10z"/>
<path d="M2870 1568 c0 -7 108 -78 117 -78 7 0 -22 21 -89 65 -16 9 -28 15
-28 13z"/>
<path d="M2879 1510 c24 -22 47 -38 50 -35 6 6 -42 49 -74 66 -11 5 0 -8 24
-31z"/>
<path d="M350 1520 c81 -21 130 -26 114 -11 -8 9 -39 14 -144 26 -33 4 -25 0
30 -15z"/>
<path d="M1204 1433 c-31 -19 -80 -46 -108 -60 -28 -14 -46 -28 -39 -30 12 -4
188 91 198 107 3 5 15 6 28 0 12 -4 56 -16 97 -25 41 -10 108 -28 149 -41 71
-23 91 -24 91 -3 0 6 -5 7 -10 4 -6 -4 -42 3 -79 14 -38 12 -114 32 -169 45
l-101 23 -57 -34z"/>
<path d="M310 1430 c-21 -7 -19 -8 15 -8 22 0 49 3 60 8 16 7 13 9 -15 8 -19
0 -46 -4 -60 -8z"/>
<path d="M2300 1409 c26 -11 652 -139 683 -139 22 0 23 36 0 45 -10 3 -19 1
-21 -4 -2 -7 -10 -5 -19 4 -8 8 -23 15 -33 15 -10 0 -22 5 -25 10 -4 7 14 9
54 6 54 -5 61 -3 61 13 0 16 -12 17 -182 13 -152 -3 -206 0 -323 18 -77 11
-158 23 -180 26 -36 4 -37 3 -15 -7z"/>
<path d="M300 1398 c0 -5 43 -8 96 -8 62 0 93 -4 89 -10 -4 -6 -1 -9 7 -8 8 2
14 -8 16 -27 5 -56 -24 -70 -193 -95 -154 -22 -333 -62 -304 -68 34 -7 454 72
478 90 48 36 54 76 16 114 -24 24 -31 25 -115 22 -50 -2 -90 -6 -90 -10z"/>
<path d="M2283 1369 c4 -13 7 -30 7 -36 0 -7 8 -13 18 -13 17 0 153 -33 462
-113 245 -63 230 -60 230 -39 0 17 -57 39 -120 46 -14 2 -45 7 -70 11 -40 7
-42 9 -20 16 19 5 14 7 -25 8 -27 1 -72 8 -100 16 l-50 15 70 -6 c39 -4 124
-19 190 -33 107 -24 145 -25 119 -2 -5 4 -99 25 -209 46 -242 45 -464 91 -489
101 -16 6 -18 4 -13 -17z"/>
<path d="M1165 1351 c3 -5 20 -12 38 -16 17 -4 62 -16 99 -27 37 -11 73 -18
79 -16 10 3 -196 68 -216 68 -3 0 -4 -4 0 -9z"/>
<path d="M45 1330 c-13 -6 6 -7 50 -3 39 3 72 7 74 9 9 8 -105 2 -124 -6z"/>
<path d="M964 1316 c-10 -8 -15 -18 -11 -23 5 -4 14 0 22 10 12 16 23 14 181
-38 190 -62 174 -58 174 -45 0 6 -6 10 -13 10 -7 0 -81 23 -165 50 -84 28
-156 50 -160 50 -5 0 -17 -6 -28 -14z"/>
<path d="M1160 1311 c0 -9 149 -51 176 -50 21 1 15 3 -103 37 -40 11 -73 17
-73 13z"/>
<path d="M2292 1295 c3 -3 102 -30 219 -60 118 -30 265 -68 328 -85 105 -28
172 -38 158 -24 -3 3 -41 14 -84 24 -43 10 -193 48 -333 84 -234 60 -302 75
-288 61z"/>
<path d="M843 1273 c-31 -21 -29 -41 4 -49 20 -6 31 -2 45 16 13 16 22 20 29
13 7 -7 4 -15 -11 -26 -12 -8 -17 -17 -12 -21 9 -5 60 41 51 47 -2 1 -11 8
-20 15 -13 10 -22 9 -45 -3 -16 -8 -22 -15 -15 -15 11 0 12 -3 4 -11 -7 -7
-19 -9 -28 -5 -14 5 -15 9 -5 21 7 8 18 15 26 15 7 0 16 5 19 10 9 15 -17 11
-42 -7z"/>
<path d="M1505 1261 c-22 -10 -103 -54 -180 -98 -77 -45 -293 -156 -480 -248
-406 -200 -525 -264 -525 -282 0 -7 5 -13 10 -13 16 0 221 -87 505 -215 355
-159 432 -192 640 -270 99 -36 218 -82 264 -101 46 -19 88 -33 94 -31 12 4
-133 65 -308 130 -244 91 -522 210 -860 366 -44 21 -135 59 -203 86 -111 44
-122 51 -105 63 26 19 366 191 578 293 164 78 379 193 478 256 22 14 59 33 82
43 24 10 46 23 49 29 9 14 8 14 -39 -8z"/>
<path d="M970 1251 c0 -9 209 -75 216 -68 5 4 -46 22 -188 67 -16 5 -28 5 -28
1z"/>
<path d="M785 1220 c-6 -9 32 -30 65 -35 8 -1 73 -21 144 -44 88 -28 133 -38
140 -31 7 7 4 10 -10 10 -26 0 -304 88 -320 101 -8 7 -14 7 -19 -1z"/>
<path d="M2330 1211 c0 -12 214 -70 225 -60 5 6 2 9 -10 9 -17 0 -70 14 -172
46 -24 7 -43 9 -43 5z"/>
<path d="M715 1193 c14 -15 345 -123 345 -113 0 5 -73 32 -162 61 -90 29 -170
54 -178 57 -10 3 -12 2 -5 -5z"/>
<path d="M375 1160 c-188 -31 -354 -63 -367 -71 -26 -16 1 -18 77 -4 304 53
420 76 429 85 13 13 -3 12 -139 -10z"/>
<path d="M546 1054 c-87 -52 -165 -94 -172 -94 -22 0 -16 18 7 25 33 11 171
87 166 92 -3 2 -53 -21 -111 -51 l-107 -55 80 -40 c44 -22 82 -37 85 -32 3 4
-18 18 -46 30 l-52 23 85 48 c46 27 119 68 161 92 68 38 95 60 71 57 -5 0 -79
-43 -167 -95z"/>
<path d="M2560 1121 c0 -4 51 -20 113 -35 61 -15 119 -30 127 -33 11 -4 12 -3
4 6 -16 18 -244 75 -244 62z"/>
<path d="M205 1083 c-77 -13 -155 -26 -174 -29 -63 -10 -26 -12 59 -3 91 10
290 46 298 54 9 9 -38 3 -183 -22z"/>
<path d="M2850 1085 c-17 -21 -8 -48 21 -62 22 -11 33 -10 60 2 19 8 30 14 25
15 -6 0 -5 5 2 12 20 20 14 37 -10 30 -11 -3 -19 -1 -16 4 10 15 -69 15 -82
-1z m47 -30 c-13 -27 -16 -29 -35 -17 -19 13 -3 42 23 42 21 0 22 -2 12 -25z
m53 5 c0 -9 -31 -30 -45 -30 -3 0 -1 9 5 20 11 20 40 28 40 10z"/>
<path d="M2566 1031 c13 -11 205 -63 212 -56 8 8 3 10 -104 38 -109 29 -123
32 -108 18z"/>
<path d="M1160 1011 c0 -15 99 -55 404 -162 59 -21 111 -40 114 -43 3 -3 15
-6 26 -6 15 1 9 6 -19 20 -22 11 -46 19 -52 20 -19 0 -446 160 -460 172 -9 7
-13 7 -13 -1z"/>
<path d="M2967 977 c-39 -66 -175 -234 -228 -282 -24 -21 -57 -55 -72 -75 -15
-19 -110 -118 -210 -220 -298 -304 -385 -400 -362 -400 21 0 73 50 213 206 45
50 121 125 168 165 47 41 132 128 189 194 166 193 188 212 268 227 37 7 67 17
67 21 0 9 -27 6 -105 -10 l-30 -6 36 44 c66 81 100 139 97 162 -3 19 -7 15
-31 -26z"/>
<path d="M2280 995 c-7 -9 -21 -13 -31 -10 -11 4 -19 2 -19 -4 0 -15 53 -14
68 1 7 7 12 16 12 20 0 13 -17 9 -30 -7z"/>
<path d="M2435 980 c3 -5 16 -10 27 -10 30 0 220 -51 235 -62 14 -11 43 -4 43
11 0 5 -10 9 -22 9 -13 -1 -75 13 -138 31 -121 32 -155 38 -145 21z"/>
<path d="M40 964 c-36 -11 -38 -13 -11 -9 18 3 44 5 57 5 13 0 24 5 24 10 0
13 -14 11 -70 -6z"/>
<path d="M1020 967 c0 -3 24 -13 53 -23 28 -9 106 -38 172 -64 144 -57 437
-160 455 -160 26 0 1 11 -151 64 -85 29 -224 81 -309 114 -148 57 -220 79
-220 69z"/>
<path d="M270 938 c0 -12 149 -80 164 -75 6 2 -13 15 -43 28 -30 13 -70 31
-88 40 -18 9 -33 13 -33 7z"/>
<path d="M950 930 c0 -5 5 -10 11 -10 24 0 713 -246 959 -343 148 -58 186 -69
168 -51 -16 15 -1106 414 -1133 414 -3 0 -5 -4 -5 -10z"/>
<path d="M210 905 c0 -7 138 -75 152 -75 7 1 -21 19 -62 40 -74 38 -90 45 -90
35z"/>
<path d="M2989 905 c-1 -3 -2 -10 -3 -15 0 -6 -16 -19 -33 -30 -45 -27 -41
-39 7 -27 36 10 40 14 40 44 0 28 -7 45 -11 28z"/>
<path d="M910 881 c0 -5 13 -11 30 -14 16 -4 99 -33 182 -66 84 -32 182 -68
218 -79 36 -11 127 -43 204 -71 76 -29 146 -51 155 -49 16 3 -90 44 -334 127
-77 26 -206 73 -287 104 -150 58 -168 63 -168 48z"/>
<path d="M160 875 c0 -9 123 -76 133 -72 6 2 -20 20 -57 40 -67 37 -76 41 -76
32z"/>
<path d="M886 841 c11 -10 255 -109 444 -179 74 -28 214 -83 310 -122 188 -77
472 -188 505 -197 14 -4 17 -2 10 5 -5 6 -64 31 -130 55 -66 25 -239 93 -383
152 -145 58 -312 123 -370 145 -59 21 -168 63 -242 94 -132 55 -164 65 -144
47z"/>
<path d="M102 830 c2 -8 21 -24 41 -35 41 -22 45 -30 21 -39 -10 -4 -37 6 -65
24 -52 32 -59 34 -59 23 0 -5 25 -21 55 -38 l55 -29 35 19 36 18 -48 25 c-27
13 -54 29 -62 35 -11 10 -13 9 -9 -3z"/>
<path d="M806 831 c5 -6 71 -33 145 -60 73 -27 173 -65 222 -84 48 -20 87 -32
87 -28 0 10 -160 73 -445 177 -15 5 -17 4 -9 -5z"/>
<path d="M651 769 c-13 -5 -21 -12 -18 -15 9 -9 57 5 57 16 0 12 -7 12 -39 -1z"/>
<path d="M693 753 c-35 -12 9 -36 47 -26 11 3 20 10 20 15 0 6 -11 7 -24 4
-13 -3 -26 -2 -28 3 -2 4 -9 6 -15 4z"/>
<path d="M3 727 c-2 -14 1 -17 6 -9 6 9 15 10 40 1 l34 -12 -24 -13 c-17 -9
-29 -9 -44 -2 -19 10 -19 9 -4 -7 15 -15 21 -16 53 -4 38 14 45 23 24 32 -7 3
-29 12 -48 20 -35 15 -36 15 -37 -6z"/>
<path d="M600 736 c0 -9 218 -92 445 -169 138 -47 315 -113 395 -147 328 -141
551 -231 562 -228 6 2 -48 28 -118 57 -71 30 -235 99 -364 154 -129 55 -352
139 -495 187 -143 48 -293 102 -334 119 -70 29 -91 36 -91 27z"/>
<path d="M2968 713 c-13 -16 -81 -98 -150 -183 -70 -85 -144 -173 -167 -195
-23 -21 -41 -44 -41 -49 0 -20 112 100 205 219 52 66 115 146 140 178 49 60
56 76 13 30z"/>
<path d="M750 719 c-11 -8 -8 -9 15 -5 21 5 26 4 15 -3 -23 -15 -4 -24 21 -10
23 12 23 12 4 20 -28 11 -38 10 -55 -2z"/>
<path d="M140 701 c0 -11 89 -45 97 -37 3 3 -7 10 -23 16 -16 5 -37 15 -46 20
-22 12 -28 13 -28 1z"/>
<path d="M820 700 c-12 -8 -12 -12 -2 -18 18 -12 64 -2 59 12 -5 15 -38 19
-57 6z"/>
<path d="M2160 674 c0 -5 15 -14 33 -20 17 -6 69 -25 115 -42 45 -17 82 -27
82 -22 0 4 -44 24 -97 45 -126 47 -133 49 -133 39z"/>
<path d="M875 660 c44 -11 67 -11 60 0 -3 6 -25 9 -48 9 -40 -1 -40 -2 -12 -9z"/>
<path d="M0 641 c0 -8 252 -122 258 -116 5 5 -57 36 -168 85 -50 21 -90 35
-90 31z"/>
<path d="M1970 639 c88 -36 360 -127 360 -120 0 10 -347 132 -370 131 -8 -1
-4 -6 10 -11z"/>
<path d="M2379 488 c-52 -56 -167 -178 -257 -271 -90 -93 -161 -171 -159 -174
7 -7 283 269 363 362 37 44 71 82 74 85 38 37 82 91 78 95 -3 3 -48 -40 -99
-97z"/>
<path d="M0 546 c0 -12 205 -113 435 -214 50 -22 162 -76 250 -119 88 -44 183
-88 210 -98 28 -10 55 -22 61 -27 24 -18 93 -37 96 -26 4 10 132 -35 153 -53
5 -5 32 -9 60 -8 l50 0 -50 23 c-153 68 -216 90 -233 79 -13 -8 -36 -1 -106
34 -131 66 -358 169 -466 213 -52 21 -147 63 -210 93 -218 103 -250 116 -250
103z"/>
<path d="M4 362 c15 -24 352 -187 460 -223 98 -32 87 -21 -24 25 -58 23 -177
78 -265 121 -88 44 -164 81 -169 83 -5 3 -6 0 -2 -6z"/>
<path d="M640 351 c0 -10 46 -32 417 -197 283 -126 390 -170 373 -152 -5 6
-262 121 -495 223 -66 29 -159 71 -207 93 -49 22 -88 37 -88 33z"/>
<path d="M2900 294 c-52 -7 -150 -19 -218 -27 -67 -8 -129 -20 -137 -27 -35
-29 -10 -51 95 -85 30 -9 69 -23 85 -31 97 -43 275 -111 275 -105 0 4 -12 14
-27 21 -97 45 -252 108 -333 136 -148 50 -150 49 160 85 162 19 216 30 199 42
-2 2 -47 -2 -99 -9z"/>
<path d="M2490 130 c14 -4 94 -33 179 -64 148 -54 198 -68 156 -44 -45 26
-316 119 -344 117 -9 0 -5 -4 9 -9z"/>
<path d="M550 111 c0 -4 12 -12 28 -17 22 -9 10 -12 -78 -17 -207 -13 -267
-16 -382 -16 -83 -1 -118 -4 -118 -13 0 -13 231 -7 523 14 l167 11 45 -32 c25
-18 50 -31 56 -29 6 2 -5 15 -24 28 -42 29 -34 39 33 41 25 1 59 5 75 9 28 8
-86 3 -143 -5 -25 -4 -100 8 -149 23 -18 6 -33 7 -33 3z"/>
<path d="M2486 101 c5 -5 50 -26 99 -47 50 -21 92 -42 93 -46 2 -4 20 -8 40
-7 21 0 30 3 22 6 -8 3 -68 27 -132 54 -119 50 -140 56 -122 40z"/>
</g>
</svg>
