<?xml version="1.0" standalone="no"?>
<!DOCTYPE svg PUBLIC "-//W3C//DTD SVG 20010904//EN"
 "http://www.w3.org/TR/2001/REC-SVG-20010904/DTD/svg10.dtd">
<svg version="1.0" xmlns="http://www.w3.org/2000/svg"
 width="200.000000pt" height="200.000000pt" viewBox="0 0 200.000000 200.000000"
 preserveAspectRatio="xMidYMid meet">
<metadata>
Created by potrace 1.10, written by Peter Selinger 2001-2011
</metadata>
<g transform="translate(0.000000,200.000000) scale(0.100000,-0.100000)"
fill="#000000" stroke="none">
<path d="M815 1981 c-182 -43 -321 -118 -482 -259 -122 -108 -219 -284 -261
-477 -35 -162 -39 -235 -18 -375 24 -157 104 -356 188 -465 44 -58 190 -197
241 -229 66 -42 235 -123 267 -129 14 -2 32 -6 40 -10 39 -14 148 -28 222 -28
387 1 737 258 880 646 70 191 83 365 42 561 -22 107 -39 154 -91 256 -103 200
-247 339 -456 439 -121 57 -220 80 -367 85 -98 3 -143 -1 -205 -15z m410 -31
c206 -52 406 -190 531 -366 61 -86 129 -234 154 -334 43 -174 35 -387 -20
-550 -21 -62 -89 -211 -100 -220 -4 -3 -9 -12 -13 -20 -31 -70 -209 -253 -274
-283 -13 -6 -23 -14 -23 -19 0 -4 -7 -8 -15 -8 -8 0 -15 -4 -15 -10 0 -5 -9
-10 -20 -10 -11 0 -20 -4 -20 -10 0 -5 -16 -12 -35 -16 -19 -3 -35 -10 -35
-15 0 -5 -11 -9 -25 -9 -14 0 -25 -4 -25 -10 0 -5 -13 -10 -28 -10 -15 0 -34
-6 -41 -13 -17 -17 -405 -17 -422 0 -7 7 -26 13 -41 13 -15 0 -28 5 -28 10 0
6 -11 10 -25 10 -14 0 -25 5 -25 10 0 6 -7 10 -16 10 -22 0 -85 30 -108 52
-11 10 -25 18 -31 18 -7 0 -21 8 -32 17 -12 10 -34 28 -49 41 -259 205 -401
522 -380 847 6 99 29 224 47 257 5 10 9 27 9 38 0 11 5 20 10 20 6 0 10 9 10
20 0 11 4 20 9 20 5 0 12 16 15 35 4 19 11 35 16 35 6 0 10 9 10 20 0 11 5 20
10 20 6 0 10 6 10 13 0 7 9 19 20 27 11 8 20 20 20 26 0 15 63 84 76 84 6 0
26 16 45 36 108 113 315 215 494 244 89 14 267 4 360 -20z"/>
<path d="M827 1931 c-126 -28 -213 -64 -313 -130 -210 -139 -352 -349 -396
-586 -16 -89 -16 -391 0 -407 7 -7 12 -24 12 -39 0 -15 5 -31 10 -34 6 -3 10
-17 10 -31 0 -13 5 -24 10 -24 6 0 10 -9 10 -19 0 -11 4 -22 9 -25 5 -3 12
-22 15 -41 4 -19 11 -35 16 -35 6 0 10 -7 10 -15 0 -8 5 -15 10 -15 6 0 10 -5
10 -12 0 -6 11 -26 25 -44 14 -18 25 -35 25 -38 0 -3 15 -22 33 -43 174 -202
377 -305 629 -320 318 -19 619 137 804 418 46 70 69 116 77 154 6 30 15 55 19
55 4 0 8 16 8 35 0 19 4 35 9 35 8 0 20 130 22 240 1 81 -13 210 -22 210 -5 0
-9 16 -9 35 0 19 -4 35 -10 35 -5 0 -10 11 -10 24 0 14 -4 28 -10 31 -5 3 -10
13 -10 21 0 20 -33 94 -42 94 -5 0 -8 5 -8 10 0 21 -79 135 -127 186 -7 7 -13
17 -13 22 0 16 -76 80 -156 132 -182 119 -437 167 -647 121z m378 -26 c200
-53 327 -133 439 -275 94 -118 162 -244 192 -352 37 -134 49 -320 29 -449 -9
-61 -19 -76 -38 -61 -16 14 -91 19 -122 9 -26 -8 -89 23 -93 46 -2 11 5 20 21
26 31 12 57 48 57 78 0 19 4 22 29 17 23 -5 32 -1 50 22 22 27 23 47 6 87 -5
11 -3 17 6 17 21 0 59 42 59 66 0 22 -42 64 -64 64 -7 0 -25 -13 -40 -29 -19
-20 -34 -27 -50 -24 -13 3 -37 -2 -52 -10 -26 -14 -32 -14 -57 1 -15 9 -31 28
-34 42 -3 14 -12 37 -20 52 -15 30 -15 30 53 83 28 22 35 23 62 13 28 -11 34
-10 57 12 49 46 18 106 -50 98 -32 -4 -35 -2 -35 22 0 52 -66 82 -108 49 l-25
-19 -23 25 c-27 29 -60 32 -86 8 -29 -26 -23 -65 17 -100 19 -17 35 -39 35
-49 0 -10 7 -25 15 -34 8 -9 16 -27 17 -41 3 -22 0 -24 -39 -24 -65 -1 -108
-56 -72 -92 7 -7 9 -18 6 -27 -5 -11 -13 -13 -34 -7 -16 5 -42 6 -59 4 -25 -4
-31 -9 -27 -24 7 -23 -21 -26 -43 -4 -9 8 -20 15 -26 15 -6 0 1 -9 16 -21 16
-12 26 -30 26 -45 0 -14 5 -35 11 -46 9 -16 7 -26 -10 -49 -26 -35 -27 -63 -1
-89 11 -11 20 -26 20 -32 0 -7 -37 -58 -81 -113 -113 -140 -126 -169 -92 -207
18 -20 60 -23 113 -8 79 23 157 30 214 19 32 -6 60 -8 63 -6 2 3 -6 14 -18 26
-20 19 -35 21 -125 21 -58 0 -106 -4 -109 -10 -3 -6 -16 -10 -29 -10 -12 0
-27 -5 -33 -11 -15 -15 -57 -7 -61 12 -1 8 5 25 15 36 10 12 36 45 58 73 22
28 50 64 63 78 13 15 44 60 69 100 44 70 45 73 27 87 -14 10 -16 17 -8 25 22
22 49 7 52 -29 2 -19 0 -37 -5 -40 -4 -3 -15 -20 -24 -36 -24 -47 -43 -77 -61
-99 -9 -12 -41 -52 -72 -90 -31 -38 -54 -71 -52 -74 3 -2 19 3 37 12 40 20
208 22 241 4 35 -20 50 -37 43 -48 -11 -18 10 -11 27 10 24 27 103 23 127 -7
23 -30 54 -43 100 -43 53 0 53 -17 0 -87 -124 -165 -287 -274 -488 -327 -81
-21 -113 -24 -225 -22 -145 3 -187 11 -303 55 -164 64 -315 191 -416 349 -50
79 -108 215 -110 257 l-2 40 65 22 c36 12 76 21 90 20 23 -2 25 -6 23 -48 -2
-25 -9 -65 -18 -88 -21 -61 -19 -117 5 -141 24 -24 29 -24 58 -5 17 13 26 13
43 4 18 -9 26 -7 49 10 l28 20 28 -24 c34 -29 42 -30 72 -10 16 12 26 13 42 5
46 -25 2 -100 -85 -145 -45 -24 -55 -48 -29 -76 21 -23 73 -25 113 -5 27 14
95 84 118 122 10 16 12 17 12 2 1 -16 36 -48 53 -48 22 0 48 48 54 102 6 56 9
61 51 89 49 34 83 82 83 117 0 12 5 22 12 22 19 0 48 32 48 53 0 26 -38 67
-62 67 -14 0 -18 8 -18 36 0 26 -8 46 -30 70 -33 38 -31 53 12 99 34 37 38 80
7 88 -20 5 -20 7 -6 21 23 23 51 21 44 -3 -4 -17 2 -20 44 -26 26 -4 57 -4 69
0 36 11 4 35 -47 35 -36 0 -45 4 -52 23 -7 18 -3 27 21 50 34 32 45 33 76 8
23 -20 29 -41 12 -41 -5 0 -10 -9 -10 -21 0 -14 5 -19 15 -16 8 4 17 2 20 -3
4 -6 11 -10 18 -10 8 0 8 3 -1 12 -7 7 -12 25 -12 41 0 15 -5 37 -11 49 -9 17
-6 25 15 47 30 31 33 57 9 83 -38 42 -103 8 -103 -54 0 -27 -1 -27 -44 -22
-40 6 -46 4 -62 -20 -16 -26 -16 -29 0 -62 9 -20 14 -39 11 -44 -3 -4 -37 -8
-75 -8 -73 1 -95 -6 -70 -23 13 -8 13 -10 0 -19 -19 -13 -30 -13 -30 0 0 6 -5
10 -11 10 -7 0 -17 7 -24 17 -11 15 -14 15 -35 0 -45 -31 -101 24 -71 72 13
21 13 25 0 35 -9 6 -18 18 -21 26 -3 8 -8 -16 -12 -53 -4 -38 -5 -71 -2 -74
11 -12 -16 -43 -37 -43 -13 0 -32 -7 -43 -15 -32 -24 -50 -17 -109 41 l-58 56
13 38 c7 22 10 53 6 73 -6 33 -5 36 28 47 19 6 40 18 46 26 19 22 39 17 84
-22 66 -56 63 -55 71 -27 4 19 9 23 18 14 16 -16 22 -14 36 15 7 16 9 44 5 70
l-6 43 41 12 c49 15 84 49 84 83 0 33 -18 54 -60 71 -26 11 -33 20 -33 41 0
58 -64 86 -94 42 -21 -30 -20 -38 9 -72 17 -19 23 -35 18 -45 -4 -9 -7 -36 -8
-61 0 -41 -2 -45 -30 -50 -17 -4 -42 -14 -57 -24 -24 -15 -27 -16 -42 -1 -9 9
-16 21 -16 26 0 5 -18 18 -41 30 -33 16 -40 24 -35 42 3 12 -3 35 -15 54 l-21
33 31 29 c52 48 171 123 245 153 118 49 235 69 366 63 63 -2 142 -11 175 -20z
m-519 -172 c-3 10 -2 15 4 12 5 -3 8 -19 6 -36 -2 -16 1 -32 6 -35 5 -3 7 -12
4 -20 -4 -10 3 -14 24 -14 18 0 34 -8 44 -22 21 -30 1 -61 -45 -68 -27 -4 -34
-11 -41 -37 -5 -19 -15 -33 -23 -33 -22 0 -18 30 6 51 17 15 18 20 8 38 -11
16 -11 24 0 44 11 20 11 28 -1 46 -11 18 -11 23 2 31 18 11 8 23 -14 14 -9 -3
-13 -11 -9 -17 3 -5 1 -7 -4 -4 -6 4 -13 16 -16 27 -7 28 22 44 41 22 13 -16
13 -16 8 1z m-292 -108 c8 -22 -4 -45 -24 -45 -20 0 -36 33 -25 50 9 15 42 12
49 -5z m-54 -63 c21 -17 22 -21 11 -55 -7 -20 -11 -51 -9 -69 3 -28 0 -33 -21
-36 -14 -2 -35 -11 -48 -19 -21 -14 -25 -14 -48 1 -14 9 -25 18 -25 21 0 24
94 175 109 175 5 0 19 -8 31 -18z m70 -12 c0 -24 -6 -25 -25 -6 -15 15 -10 26
12 26 7 0 13 -9 13 -20z m64 -46 c11 -28 6 -47 -16 -71 -51 -54 -116 3 -76 67
16 25 83 28 92 4z m952 -1 c7 -10 14 -24 14 -31 0 -23 24 -37 63 -38 50 -1 90
-39 73 -69 -19 -34 -34 -45 -59 -45 -33 0 -60 33 -59 71 1 36 -21 64 -44 55
-16 -6 -44 15 -44 34 0 13 22 39 34 40 5 0 15 -8 22 -17z m147 -17 c22 -17 22
-33 -3 -41 -20 -6 -60 9 -60 23 0 12 22 32 35 32 5 0 18 -7 28 -14z m-919 -32
c21 -31 18 -54 -9 -64 -46 -17 -104 40 -75 75 20 24 65 19 84 -11z m-109 6 c8
-13 -20 -24 -41 -16 -20 8 -9 26 16 26 10 0 22 -5 25 -10z m-152 -64 c3 -8 -4
-22 -16 -31 -15 -11 -18 -17 -9 -21 16 -7 15 -54 -2 -76 -7 -10 -26 -18 -43
-18 -24 0 -32 7 -46 34 -15 33 -15 35 9 61 18 20 31 25 48 21 19 -5 25 -1 30
19 7 28 21 33 29 11z m1297 -10 c0 -18 -7 -25 -26 -29 -16 -3 -28 0 -31 9 -3
8 -13 14 -22 14 -24 0 29 28 57 29 17 1 22 -4 22 -23z m-527 -4 c24 -26 4 -47
-40 -43 -23 2 -6 59 18 61 3 0 13 -8 22 -18z m-927 -47 c14 -21 11 -22 -48
-16 -5 1 -8 10 -8 22 0 27 37 23 56 -6z m802 -58 c3 -21 -1 -27 -15 -27 -30 0
-44 19 -30 42 17 26 41 18 45 -15z m462 3 c0 -16 -5 -30 -11 -30 -6 0 -1 -13
10 -28 12 -18 18 -37 14 -50 -4 -17 -1 -22 15 -22 11 0 27 -7 36 -15 8 -8 19
-15 25 -15 6 0 11 -2 11 -4 0 -2 3 -12 7 -21 5 -15 1 -16 -28 -11 -19 3 -28 3
-21 0 6 -3 12 -18 12 -32 0 -15 7 -40 15 -56 16 -31 11 -46 -28 -75 -10 -7
-34 -46 -52 -87 -35 -76 -42 -82 -74 -62 -30 18 -98 -7 -143 -53 -22 -22 -38
-33 -38 -25 0 8 5 18 11 21 5 4 15 17 20 28 5 12 18 36 29 52 35 53 70 135 70
164 0 16 7 34 15 41 20 16 19 49 -1 71 -26 29 -8 37 76 34 79 -3 80 -3 56 16
-17 13 -33 17 -60 12 -23 -4 -36 -2 -36 6 0 19 -28 12 -35 -8 -5 -16 -43 -36
-52 -27 -9 9 11 36 30 42 29 8 67 52 67 76 0 10 7 18 15 18 10 0 15 10 15 28
0 16 3 32 7 35 14 15 23 6 23 -23z m-1315 9 c4 -6 14 -8 22 -5 9 4 27 -7 47
-27 17 -18 44 -39 59 -47 26 -13 28 -17 21 -50 -4 -19 -8 -51 -8 -70 -1 -21
-10 -47 -24 -64 -14 -18 -20 -36 -16 -48 7 -23 -20 -47 -53 -48 -12 0 -23 -5
-25 -10 -2 -6 -21 -11 -42 -13 -35 -2 -41 1 -47 23 -17 61 1 266 31 345 10 26
24 32 35 14z m181 -57 c6 -4 14 -17 18 -29 6 -19 4 -23 -13 -23 -12 0 -21 6
-21 14 0 8 -3 21 -6 30 -6 17 4 21 22 8z m1057 -6 c5 -13 -21 -46 -37 -46 -15
0 -38 31 -32 45 7 19 62 20 69 1z m-1002 -77 c32 -23 38 -61 14 -92 -20 -27
-47 -17 -69 24 -19 35 -19 36 0 62 10 15 21 27 22 27 2 0 17 -9 33 -21z m255
6 c6 -15 -17 -45 -35 -45 -15 0 -14 28 2 45 16 18 26 19 33 0z m268 -10 c31
-29 30 -41 -6 -68 -24 -18 -27 -18 -52 -2 -31 20 -35 61 -8 81 25 19 36 17 66
-11z m863 6 c10 -16 8 -23 -8 -42 -10 -12 -19 -17 -19 -11 0 7 -7 12 -15 12
-16 0 -19 17 -9 44 8 22 37 20 51 -3z m-984 -45 c26 -55 54 -83 69 -68 21 21
28 13 28 -29 0 -45 -19 -50 -31 -8 -4 13 -8 17 -8 9 -1 -17 -77 -100 -91 -100
-5 0 -11 4 -14 9 -4 5 -27 16 -52 25 -41 14 -45 14 -40 0 3 -9 6 -20 6 -25 0
-5 15 -9 34 -9 21 0 36 -6 40 -15 5 -13 10 -14 27 -5 14 8 24 9 31 2 14 -14
-1 -35 -19 -28 -9 4 -23 -4 -34 -18 -24 -31 -66 -39 -96 -17 -22 16 -32 61
-13 61 6 0 10 7 10 15 0 8 -4 15 -10 15 -5 0 -10 7 -10 15 0 8 -4 15 -10 15
-5 0 -10 10 -10 21 0 16 5 20 19 16 26 -6 44 52 29 94 -12 35 -8 40 40 56 62
19 85 13 105 -31z m502 -10 c14 -21 14 -28 3 -46 -29 -46 -98 -28 -98 26 0 45
69 60 95 20z m379 5 c28 -31 8 -93 -39 -118 -16 -9 -23 -7 -38 10 -23 27 -16
71 15 104 26 28 40 29 62 4z m-1060 -28 c25 -34 11 -57 -36 -61 -38 -3 -56 11
-60 48 -2 16 4 27 20 36 31 15 53 9 76 -23z m-124 23 c0 -2 3 -11 6 -20 4 -11
1 -16 -10 -16 -20 0 -21 -14 -1 -30 36 -30 3 -55 -65 -48 -44 4 -47 19 -10 40
33 19 51 49 32 56 -20 6 -3 22 24 22 13 0 24 -2 24 -4z m860 -76 c-6 -12 -17
-16 -30 -13 -25 7 -26 29 -3 42 25 13 46 -5 33 -29z m380 -4 c0 -28 -12 -46
-31 -46 -19 0 -24 16 -13 44 8 20 44 21 44 2z m-1390 -11 c10 -12 10 -18 0
-30 -16 -19 -34 -19 -49 -1 -9 11 -8 18 4 30 20 20 29 20 45 1z m569 -64 c28
-22 23 -51 -14 -75 -20 -13 -29 -14 -48 -5 -44 23 -46 38 -11 73 31 31 41 32
73 7z m318 3 c14 -14 14 -17 0 -31 -21 -21 -47 -9 -47 22 0 29 23 34 47 9z
m-656 -4 c10 -6 19 -17 19 -25 0 -17 -26 -20 -35 -5 -8 14 -78 12 -145 -4 -35
-8 -50 -15 -41 -20 9 -6 12 -21 8 -47 l-5 -38 26 17 c28 18 103 41 139 42 31
0 62 -28 56 -51 -5 -18 -92 -79 -113 -79 -5 0 2 -16 15 -36 14 -20 25 -43 25
-50 0 -8 5 -14 10 -14 6 0 10 -7 10 -15 0 -8 5 -15 10 -15 6 0 10 -7 10 -15 0
-8 -9 -15 -19 -15 -13 0 -28 19 -52 68 l-33 67 -14 -50 c-17 -61 -25 -77 -37
-79 -14 -2 -18 34 -7 58 6 11 13 37 16 56 3 19 9 52 12 73 5 30 4 37 -10 37
-9 0 -16 -4 -16 -10 0 -5 -7 -10 -15 -10 -8 0 -15 -1 -15 -3 0 -13 -22 -130
-32 -164 -11 -45 -38 -60 -37 -20 1 33 23 135 32 143 4 4 7 43 7 87 0 71 -2
78 -17 72 -10 -4 -36 -12 -58 -17 -48 -12 -67 -19 -122 -46 -36 -17 -42 -18
-47 -5 -8 21 0 31 34 38 16 4 32 11 35 16 4 5 17 9 31 9 13 0 24 3 24 8 0 8
95 29 185 42 78 11 144 11 166 0z m1057 -27 c3 -22 -28 -40 -48 -28 -12 7 -13
38 -3 49 15 14 48 1 51 -21z m-68 -38 c0 -8 -8 -29 -18 -47 -23 -40 -33 -78
-22 -78 5 0 12 5 15 10 10 17 61 11 79 -9 15 -17 16 -22 3 -52 -19 -46 -127
-104 -127 -69 0 6 -7 10 -15 10 -8 0 -18 15 -23 33 -7 26 -5 36 9 53 11 11 19
26 19 32 0 7 4 20 9 30 4 9 18 39 30 65 20 44 41 56 41 22z m-742 -37 c9 -9
26 -12 95 -17 5 -1 7 -11 5 -23 -3 -21 -10 -24 -71 -29 -37 -3 -73 -11 -79
-17 -7 -7 -20 -12 -30 -12 -28 0 -22 42 10 78 29 33 51 39 70 20z m181 -17
c17 -11 7 -61 -12 -61 -31 0 -51 53 -24 63 18 8 21 8 36 -2z m-319 -46 c0 -8
5 -15 11 -15 6 0 4 -7 -5 -15 -19 -19 -33 -19 -52 0 -13 12 -13 17 -2 29 17
20 48 20 48 1z m227 -37 c50 -18 53 -45 8 -84 -20 -17 -51 -36 -69 -41 -31 -9
-31 -10 -28 -66 4 -65 -14 -117 -40 -117 -19 0 -25 25 -8 35 14 9 13 215 -1
215 -21 0 -36 -27 -43 -80 -9 -65 -28 -130 -38 -130 -5 0 -8 -6 -8 -13 0 -14
-73 -85 -107 -105 -29 -16 -41 -15 -59 2 -23 23 -17 36 15 30 24 -5 36 1 78
43 63 61 83 114 83 216 0 49 4 77 11 77 6 0 13 -9 16 -20 5 -20 5 -20 34 1 23
16 80 39 118 48 3 1 20 -4 38 -11z m493 -35 c0 -34 6 -53 21 -69 11 -12 16
-24 11 -28 -14 -8 -52 23 -52 43 0 29 -11 32 -41 10 -37 -26 -63 -21 -67 11
-2 20 6 30 40 52 24 14 53 27 66 27 20 1 22 -4 22 -46z m390 33 c0 -21 -21
-31 -30 -15 -7 10 -16 10 -51 0 l-43 -13 41 -19 c66 -30 92 -81 57 -110 -36
-30 -184 -8 -184 27 0 18 21 29 29 16 18 -30 124 -44 135 -17 7 19 -17 42 -65
63 -43 18 -51 46 -21 68 24 19 132 19 132 0z m-1200 -37 c0 -31 37 -78 72 -92
11 -4 15 -12 12 -21 -5 -13 -11 -13 -45 5 -63 31 -104 139 -54 139 10 0 15
-10 15 -31z"/>
<path d="M685 1310 c4 -19 8 -35 9 -35 17 0 62 -36 64 -53 2 -12 9 -22 17 -22
7 0 22 -3 32 -7 17 -6 17 -5 3 13 -9 10 -22 31 -29 46 -8 15 -27 32 -43 39
-16 6 -36 21 -44 33 -15 20 -15 19 -9 -14z"/>
<path d="M484 806 c-3 -8 -4 -26 -2 -39 l3 -26 52 32 c29 18 53 35 53 40 0 14
-100 8 -106 -7z"/>
<path d="M1525 710 c-21 -24 -13 -50 16 -50 27 0 79 37 79 56 0 22 -73 18 -95
-6z"/>
<path d="M842 698 c-15 -15 -16 -68 -2 -68 6 0 28 11 50 25 22 14 44 25 50 25
5 0 10 7 10 15 0 19 -90 21 -108 3z"/>
<path d="M1345 690 c-27 -30 -14 -33 20 -5 21 17 25 24 14 25 -9 0 -24 -9 -34
-20z"/>
</g>
</svg>
