<?xml version="1.0" standalone="no"?>
<!DOCTYPE svg PUBLIC "-//W3C//DTD SVG 20010904//EN"
 "http://www.w3.org/TR/2001/REC-SVG-20010904/DTD/svg10.dtd">
<svg version="1.0" xmlns="http://www.w3.org/2000/svg"
 width="131.000000pt" height="98.000000pt" viewBox="0 0 131.000000 98.000000"
 preserveAspectRatio="xMidYMid meet">
<metadata>
Created by potrace 1.10, written by Peter Selinger 2001-2011
</metadata>
<g transform="translate(0.000000,98.000000) scale(0.100000,-0.100000)"
fill="#000000" stroke="none">
<path d="M10 490 c0 -411 2 -490 14 -490 7 0 16 10 20 22 3 13 6 233 6 491 0
460 0 467 -20 467 -20 0 -20 -7 -20 -490z"/>
<path d="M205 887 c-82 -160 -94 -326 -35 -496 34 -99 75 -164 141 -225 70
-65 116 -92 206 -122 188 -64 393 -16 534 125 88 89 132 172 153 286 20 112
20 154 1 246 -25 118 -106 279 -140 279 -10 0 -2 -16 22 -47 77 -102 113 -213
113 -356 0 -122 -29 -218 -97 -320 -115 -173 -334 -262 -533 -216 -122 28
-256 127 -332 243 -106 164 -119 395 -32 569 30 59 74 121 81 113 3 -2 -6 -20
-20 -38 -62 -83 -107 -224 -107 -335 1 -327 291 -591 596 -543 184 29 350 172
405 349 58 189 16 415 -101 542 -45 49 -38 25 15 -50 35 -51 70 -121 80 -163
6 -25 5 -27 -21 -26 -16 0 -49 -7 -74 -16 -42 -16 -45 -16 -57 0 -27 37 -9 74
37 74 31 0 65 33 57 54 -3 8 -24 26 -46 40 -21 14 -42 30 -46 36 -4 7 -19 9
-36 5 -18 -4 -36 -2 -45 6 -13 10 -20 8 -42 -14 l-26 -27 21 -27 c36 -49 36
-67 3 -91 -16 -13 -30 -29 -30 -37 0 -15 -34 -30 -49 -21 -14 9 -19 69 -8 93
8 18 6 27 -8 43 -23 26 -31 25 -59 -5 -13 -14 -28 -25 -33 -25 -18 0 -54 -47
-48 -62 5 -11 -2 -17 -24 -20 -25 -4 -38 3 -75 37 -31 30 -41 46 -35 56 5 8 9
26 9 42 0 16 5 27 13 27 20 0 47 33 47 57 0 25 -30 53 -58 53 -26 0 -20 -21
10 -35 27 -13 26 -27 -1 -41 -12 -6 -28 -20 -36 -30 -8 -11 -15 -14 -15 -7 0
6 4 14 8 17 5 3 8 22 6 43 -3 53 -3 53 -13 53 -5 0 -12 -18 -16 -40 -13 -75
-74 -73 -110 4 -15 31 -20 34 -60 34 l-43 0 -47 -91z m125 49 c0 -8 3 -23 6
-33 6 -15 3 -14 -15 4 -25 26 -27 43 -6 43 8 0 15 -6 15 -14z m-37 -43 c7 -11
-26 -76 -40 -81 -18 -5 -16 39 3 66 15 22 29 28 37 15z m85 -36 c-2 -11 -12
-25 -23 -31 -33 -19 -41 -35 -39 -86 l3 -48 -30 30 c-33 35 -32 33 -18 59 6
12 17 18 24 15 19 -7 29 12 27 46 -1 17 4 30 15 36 24 14 45 3 41 -21z m552
-2 c6 -15 15 -23 23 -19 8 3 24 -3 36 -13 19 -16 20 -20 8 -37 -19 -26 -57
-13 -57 20 0 17 -8 27 -25 34 -25 9 -31 21 -18 33 12 13 24 7 33 -18z m-450
-10 c9 -11 10 -19 3 -26 -14 -14 16 -77 39 -85 22 -7 24 -42 3 -50 -21 -8 -47
15 -40 36 7 23 -13 70 -38 91 -12 10 -18 23 -14 33 8 20 31 21 47 1z m-43 -63
c24 -20 29 -31 23 -42 -6 -8 -10 -25 -10 -38 0 -15 -9 -26 -27 -33 -22 -8 -30
-6 -54 17 -24 23 -26 29 -17 62 19 69 36 76 85 34z m336 20 c3 -4 -3 -17 -13
-30 l-19 -23 3 28 c2 15 4 29 5 31 2 5 20 1 24 -6z m184 -62 c-3 -11 -1 -23 4
-26 5 -3 9 -13 9 -22 0 -22 66 -66 76 -51 3 6 15 9 25 6 12 -3 25 3 34 16 11
16 18 18 26 10 15 -15 3 -34 -16 -26 -11 3 -19 -5 -26 -26 -14 -41 -45 -58
-57 -34 -5 10 -8 23 -6 28 5 14 -56 48 -87 48 -39 1 -58 -10 -69 -38 -12 -32
-53 -32 -58 1 -3 22 -55 58 -86 60 -24 2 -38 25 -24 42 17 20 53 11 51 -13 -2
-22 42 -55 89 -66 21 -5 33 0 57 23 16 16 36 43 43 59 15 33 23 38 15 9z
m-708 -26 c23 -19 31 -34 31 -59 0 -45 -27 -90 -62 -103 -26 -10 -30 -8 -38
14 -6 15 -6 50 -1 89 14 96 20 101 70 59z m95 -40 c26 -10 20 -53 -9 -64 -15
-6 -23 -15 -19 -24 7 -17 -12 -31 -21 -16 -4 6 1 20 10 30 9 10 14 24 10 29
-6 10 2 51 10 51 2 0 10 -3 19 -6z m302 -8 c17 -13 18 -16 3 -31 -19 -19 -49
-10 -49 14 0 33 16 39 46 17z m-73 -39 c28 -52 2 -88 -48 -65 -20 9 -23 16
-18 42 5 28 27 56 43 56 3 0 13 -15 23 -33z m-95 -15 c-5 -24 -52 -23 -56 2
-2 10 2 22 9 27 18 11 51 -9 47 -29z m299 7 c8 -20 9 -38 3 -49 -5 -9 -7 -32
-4 -51 4 -29 -2 -40 -36 -78 -43 -47 -49 -47 -24 0 14 28 14 32 -1 49 -18 19
-55 89 -55 103 0 4 8 19 18 32 12 18 27 24 52 25 31 0 37 -4 47 -31z m215 -16
c7 -26 3 -40 -23 -82 -26 -42 -37 -51 -60 -51 -32 0 -34 3 -20 29 6 10 12 28
14 42 13 71 20 88 41 92 33 7 40 3 48 -30z m181 -5 c3 -18 2 -53 -1 -78 l-7
-45 -52 -2 c-29 -1 -56 3 -59 8 -3 6 15 29 40 53 26 23 46 51 46 62 0 44 26
45 33 2z m-673 -59 c0 -4 19 -11 43 -15 23 -4 35 -9 27 -12 -8 -3 -21 -11 -28
-19 -26 -26 -61 -11 -59 27 0 14 -3 34 -7 45 -8 20 -7 20 8 1 9 -11 16 -23 16
-27z m370 16 c0 -23 -28 -74 -68 -125 -62 -78 -59 -74 -33 -65 13 4 48 7 78 6
54 0 83 -12 83 -34 0 -7 -4 -7 -12 1 -15 15 -95 15 -154 1 -25 -6 -47 -9 -51
-6 -3 4 14 31 38 62 71 90 100 138 93 157 -3 12 0 18 10 18 9 0 16 -7 16 -15z
m-432 -1 c12 -4 22 -11 22 -16 0 -5 -9 -7 -20 -3 -11 3 -39 3 -63 0 -41 -6
-43 -9 -39 -35 4 -27 5 -27 33 -13 35 17 84 14 84 -7 0 -8 -14 -24 -31 -35
l-31 -21 23 -34 c25 -38 29 -50 16 -50 -4 0 -17 16 -29 36 l-21 37 -7 -31 c-3
-18 -11 -34 -16 -37 -12 -8 -11 3 2 65 12 56 10 64 -13 55 -10 -4 -18 -26 -22
-58 -8 -56 -13 -70 -26 -62 -4 3 -2 30 6 61 9 31 14 71 12 89 l-3 33 -67 -23
c-38 -13 -68 -19 -68 -15 0 13 107 50 170 59 30 5 57 9 60 10 3 0 15 -2 28 -5z
m210 -18 c6 -31 -43 -50 -54 -21 -8 20 15 47 35 43 9 -2 17 -12 19 -22z m348
-63 c-15 -29 -15 -29 14 -25 52 8 52 -47 -1 -68 -26 -11 -33 -11 -46 3 -14 14
-14 19 -1 49 8 18 21 49 29 68 9 23 15 29 17 18 2 -9 -4 -30 -12 -45z m-326
17 c0 -5 5 -9 12 -7 6 1 14 -6 16 -15 5 -27 -21 -21 -35 7 -6 14 -7 25 -2 25
5 0 9 -4 9 -10z m-390 -37 c0 -10 -5 -35 -11 -57 -9 -33 -8 -41 10 -60 19 -20
27 -22 69 -15 26 4 55 3 64 -2 9 -5 24 -6 32 -3 26 10 19 -24 -9 -42 -42 -27
-51 -53 -27 -77 26 -25 59 -18 107 24 22 20 41 29 51 25 23 -9 42 10 54 55 6
22 22 46 39 58 l28 20 -4 -22 c-3 -15 4 -30 20 -45 22 -21 29 -22 63 -13 22 6
65 11 96 11 34 0 68 7 85 16 27 16 31 15 80 -7 29 -13 53 -30 53 -37 0 -20
-118 -134 -170 -165 -72 -41 -161 -60 -260 -54 -113 6 -170 29 -275 110 -38
29 -56 50 -98 113 -77 117 -90 166 -49 177 37 10 52 7 52 -10z m364 -19 c28
-11 17 -40 -23 -62 -30 -17 -38 -27 -34 -42 6 -23 -4 -70 -15 -70 -4 0 -6 32
-4 71 4 56 2 71 -9 67 -7 -2 -18 -27 -24 -55 -19 -84 -73 -145 -112 -128 -16
7 -16 8 2 13 51 11 94 80 96 154 0 24 3 38 5 31 4 -8 17 -6 47 8 47 21 49 21
71 13z m276 -22 c0 -15 5 -33 12 -40 9 -9 9 -12 -1 -12 -7 0 -15 9 -18 20 -6
23 -14 25 -30 9 -7 -7 -20 -8 -30 -5 -16 7 -15 10 12 32 39 31 55 30 55 -4z
m225 18 c-3 -5 -12 -7 -20 -4 -7 3 -22 1 -31 -4 -16 -9 -15 -10 4 -16 12 -4
27 -17 33 -28 9 -18 8 -24 -7 -35 -10 -7 -23 -13 -30 -13 -23 0 -64 19 -64 30
0 7 6 8 19 0 28 -15 71 -13 71 4 0 7 -13 19 -30 26 -31 13 -40 34 -17 43 22
10 78 7 72 -3z m-685 -19 c0 -11 11 -28 25 -39 14 -11 25 -23 25 -26 0 -12
-58 23 -64 39 -9 25 -7 45 4 45 6 0 10 -9 10 -19z"/>
<path d="M380 460 c0 -25 2 -25 42 0 l33 20 -37 0 c-31 0 -38 -4 -38 -20z"/>
<path d="M973 415 c-3 -9 -3 -19 1 -22 8 -9 56 14 56 27 0 16 -50 12 -57 -5z"/>
<path d="M587 413 c-9 -8 -9 -43 -1 -43 12 0 64 34 64 42 0 10 -54 11 -63 1z"/>
</g>
</svg>
